<?xml version="1.0" encoding="UTF-8" standalone="no"?>
<!-- Created with Inkscape (http://www.inkscape.org/) -->

<svg
   width="200"
   height="200"
   viewBox="0 0 52.916665 52.916666"
   version="1.1"
   id="svg1"
   xml:space="preserve"
   xmlns="http://www.w3.org/2000/svg"
   xmlns:svg="http://www.w3.org/2000/svg"><defs
     id="defs1" /><g
     id="layer7"
     transform="translate(-317.50001)"><circle
       style="fill:#e4dfe1;fill-opacity:1;stroke-width:4.79999;stroke-linecap:round;stroke-linejoin:round;paint-order:stroke fill markers"
       id="use45"
       cx="343.95834"
       cy="26.458332"
       r="26.458332" /><circle
       style="fill:#c20b10;fill-opacity:1;stroke-width:4.48117;stroke-linecap:round;stroke-linejoin:round;paint-order:stroke fill markers"
       id="use46"
       cx="343.95834"
       cy="26.458332"
       r="24.700937" /><circle
       style="fill:#ffffff;fill-opacity:1;stroke-width:3.174;stroke-linecap:round;stroke-linejoin:round;paint-order:stroke fill markers"
       id="use47"
       cx="343.95834"
       cy="26.458332"
       r="17.495613" /><path
       style="font-size:21.1667px;line-height:0;font-family:Overpass;-inkscape-font-specification:'Overpass, @wght=900';font-variation-settings:'wght' 900;letter-spacing:-1.32292px;word-spacing:7.9375px;stroke-width:4.8;stroke-linecap:round;stroke-linejoin:round;paint-order:stroke fill markers"
       d="M 329.80313,33.866665 V 23.304481 h -2.13784 V 20.55281 q 0.6985,0 1.24884,-0.137583 0.55033,-0.137584 0.93133,-0.465668 0.381,-0.328083 0.5715,-0.899584 h 2.73051 v 14.81669 z m 11.80042,0.254 q -1.64042,0 -2.73051,-0.677334 -1.0795,-0.677335 -1.70392,-1.79917 -0.62441,-1.121835 -0.889,-2.476504 -0.26458,-1.354668 -0.26458,-2.709337 0,-1.153585 0.16933,-2.264837 0.16934,-1.121835 0.55034,-2.095504 0.39158,-0.973668 1.03716,-1.714502 0.64559,-0.740835 1.58751,-1.164169 0.9525,-0.423334 2.24367,-0.423334 1.64042,0 2.71992,0.666751 1.09008,0.656168 1.7145,1.76742 0.62442,1.100668 0.889,2.46592 0.26459,1.354669 0.26459,2.762255 0,1.143002 -0.16934,2.254253 -0.16933,1.111252 -0.56091,2.08492 -0.39159,0.973669 -1.03717,1.725086 -0.64559,0.751418 -1.58751,1.174752 -0.94191,0.423334 -2.23308,0.423334 z m 0,-3.153838 q 0.635,0 1.06892,-0.359834 0.4445,-0.370417 0.70908,-0.994835 0.26458,-0.635001 0.381,-1.439336 0.127,-0.814917 0.127,-1.714502 0,-0.846668 -0.11642,-1.651003 -0.11641,-0.804334 -0.381,-1.449919 -0.254,-0.645584 -0.6985,-1.026585 -0.43391,-0.381 -1.09008,-0.381 -0.635,0 -1.0795,0.370417 -0.43392,0.359834 -0.70909,0.994835 -0.27517,0.624417 -0.40217,1.439335 -0.11641,0.804335 -0.11641,1.70392 0,0.846668 0.11641,1.651002 0.11642,0.804335 0.381,1.449919 0.26459,0.645585 0.70909,1.026585 0.4445,0.381001 1.10067,0.381001 z m 13.05986,3.153838 q -1.64042,0 -2.7305,-0.677334 -1.0795,-0.677335 -1.70392,-1.79917 -0.62442,-1.121835 -0.889,-2.476504 -0.26459,-1.354668 -0.26459,-2.709337 0,-1.153585 0.16934,-2.264837 0.16933,-1.121835 0.55033,-2.095504 0.39159,-0.973668 1.03717,-1.714502 0.64558,-0.740835 1.5875,-1.164169 0.9525,-0.423334 2.24367,-0.423334 1.64042,0 2.71992,0.666751 1.09009,0.656168 1.71451,1.76742 0.62441,1.100668 0.889,2.46592 0.26458,1.354669 0.26458,2.762255 0,1.143002 -0.16933,2.254253 -0.16934,1.111252 -0.56092,2.08492 -0.39158,0.973669 -1.03717,1.725086 -0.64558,0.751418 -1.5875,1.174752 -0.94192,0.423334 -2.23309,0.423334 z m 0,-3.153838 q 0.635,0 1.06892,-0.359834 0.4445,-0.370417 0.70909,-0.994835 0.26458,-0.635001 0.381,-1.439336 0.127,-0.814917 0.127,-1.714502 0,-0.846668 -0.11642,-1.651003 -0.11642,-0.804334 -0.381,-1.449919 -0.254,-0.645584 -0.6985,-1.026585 -0.43392,-0.381 -1.09009,-0.381 -0.635,0 -1.0795,0.370417 -0.43392,0.359834 -0.70908,0.994835 -0.27517,0.624417 -0.40217,1.439335 -0.11642,0.804335 -0.11642,1.70392 0,0.846668 0.11642,1.651002 0.11642,0.804335 0.381,1.449919 0.26458,0.645585 0.70908,1.026585 0.4445,0.381001 1.10067,0.381001 z"
       id="use48"
       aria-label="100" /><text
       xml:space="preserve"
       style="font-style:normal;font-variant:normal;font-weight:normal;font-stretch:normal;font-size:21.1667px;line-height:0;font-family:Overpass;-inkscape-font-specification:'Overpass, @wght=900';font-variant-ligatures:normal;font-variant-caps:normal;font-variant-numeric:normal;font-variant-east-asian:normal;font-variation-settings:'wght' 900;letter-spacing:-1.32292px;word-spacing:7.9375px;display:none;fill:#000000;fill-opacity:1;stroke-width:4.79999;stroke-linecap:round;stroke-linejoin:round;paint-order:stroke fill markers"
       x="327.00912"
       y="33.866665"
       id="text7"><tspan
         id="tspan7"
         style="font-style:normal;font-variant:normal;font-weight:normal;font-stretch:normal;font-size:21.1667px;font-family:Overpass;-inkscape-font-specification:'Overpass, @wght=900';font-variant-ligatures:normal;font-variant-caps:normal;font-variant-numeric:normal;font-variant-east-asian:normal;font-variation-settings:'wght' 900;fill:#000000;fill-opacity:1;stroke-width:4.8"
         x="0"
         y="0">100</tspan></text></g></svg>
