<?xml version="1.0" encoding="UTF-8" standalone="no"?>
<!-- Created with Inkscape (http://www.inkscape.org/) -->

<svg
   width="200"
   height="200"
   viewBox="0 0 52.916665 52.916666"
   version="1.1"
   id="svg1"
   xml:space="preserve"
   xmlns="http://www.w3.org/2000/svg"
   xmlns:svg="http://www.w3.org/2000/svg"><defs
     id="defs1" /><g
     id="layer8"
     style="display:inline"
     transform="translate(-370.41667)"><circle
       style="fill:#e4dfe1;fill-opacity:1;stroke-width:4.79999;stroke-linecap:round;stroke-linejoin:round;paint-order:stroke fill markers"
       id="use49"
       cx="396.875"
       cy="26.458332"
       r="26.458332" /><circle
       style="fill:#c20b10;fill-opacity:1;stroke-width:4.48117;stroke-linecap:round;stroke-linejoin:round;paint-order:stroke fill markers"
       id="use50"
       cx="396.875"
       cy="26.458332"
       r="24.700937" /><circle
       style="fill:#ffffff;fill-opacity:1;stroke-width:3.174;stroke-linecap:round;stroke-linejoin:round;paint-order:stroke fill markers"
       id="use51"
       cx="396.875"
       cy="26.458332"
       r="17.495613" /><path
       style="font-size:21.1667px;line-height:0;font-family:Overpass;-inkscape-font-specification:'Overpass, @wght=900';font-variation-settings:'wght' 900;letter-spacing:-1.32292px;word-spacing:7.9375px;stroke-width:4.8;stroke-linecap:round;stroke-linejoin:round;paint-order:stroke fill markers"
       d="M 383.44473,33.866676 V 23.304493 h -2.13784 v -2.751671 q 0.69851,0 1.24884,-0.137584 0.55033,-0.137583 0.93133,-0.465667 0.381,-0.328084 0.57151,-0.899585 h 2.7305 v 14.81669 z m 6.02191,0 q 0,-1.735669 0.37042,-3.048005 0.381,-1.322918 1.05833,-2.317753 0.67734,-1.005418 1.59809,-1.756836 0.92075,-0.762002 2.01083,-1.365253 0.46567,-0.264583 0.88901,-0.550334 0.42333,-0.296334 0.68791,-0.666751 0.26459,-0.370417 0.26459,-0.857251 0,-0.666751 -0.41275,-1.005418 -0.40217,-0.349251 -1.06892,-0.349251 -0.6985,0 -1.25942,0.381001 -0.56092,0.370417 -0.94192,1.058335 l -2.96334,-1.354669 q 0.6985,-1.524003 2.09551,-2.381254 1.397,-0.857251 2.9845,-0.857251 1.54517,0 2.62467,0.603251 1.09009,0.592667 1.65101,1.587502 0.5715,0.994835 0.5715,2.190754 0,1.280585 -0.39159,2.127253 -0.39158,0.846668 -1.0795,1.449919 -0.68792,0.592668 -1.57692,1.121835 -0.99483,0.592668 -1.61925,1.026585 -0.61384,0.423334 -0.98425,0.836085 -0.37042,0.402167 -0.61384,0.931335 h 6.39235 v 3.196171 z m 17.38844,0.254001 q -1.64042,0 -2.7305,-0.677335 -1.0795,-0.677334 -1.70392,-1.799169 -0.62442,-1.121835 -0.889,-2.476504 -0.26458,-1.354669 -0.26458,-2.709338 0,-1.153585 0.16933,-2.264837 0.16933,-1.121835 0.55033,-2.095503 0.39159,-0.973668 1.03717,-1.714503 0.64559,-0.740834 1.5875,-1.164168 0.95251,-0.423334 2.24367,-0.423334 1.64042,0 2.71993,0.666751 1.09008,0.656167 1.7145,1.767419 0.62442,1.100669 0.889,2.465921 0.26458,1.354669 0.26458,2.762254 0,1.143002 -0.16933,2.254254 -0.16933,1.111252 -0.56092,2.08492 -0.39158,0.973668 -1.03717,1.725086 -0.64558,0.751418 -1.5875,1.174752 -0.94192,0.423334 -2.23309,0.423334 z m 0,-3.153839 q 0.63501,0 1.06892,-0.359834 0.4445,-0.370417 0.70909,-0.994834 0.26458,-0.635001 0.381,-1.439336 0.127,-0.814918 0.127,-1.714503 0,-0.846668 -0.11642,-1.651002 -0.11642,-0.804335 -0.381,-1.449919 -0.254,-0.645585 -0.6985,-1.026585 -0.43392,-0.381001 -1.09009,-0.381001 -0.635,0 -1.0795,0.370417 -0.43392,0.359834 -0.70908,0.994835 -0.27517,0.624418 -0.40217,1.439336 -0.11642,0.804334 -0.11642,1.703919 0,0.846668 0.11642,1.651003 0.11642,0.804334 0.381,1.449919 0.26458,0.645584 0.70909,1.026585 0.4445,0.381 1.10066,0.381 z"
       id="use52"
       aria-label="120" /><text
       xml:space="preserve"
       style="font-style:normal;font-variant:normal;font-weight:normal;font-stretch:normal;font-size:21.1667px;line-height:0;font-family:Overpass;-inkscape-font-specification:'Overpass, @wght=900';font-variant-ligatures:normal;font-variant-caps:normal;font-variant-numeric:normal;font-variant-east-asian:normal;font-variation-settings:'wght' 900;letter-spacing:-1.32292px;word-spacing:7.9375px;display:none;fill:#000000;fill-opacity:1;stroke-width:4.79999;stroke-linecap:round;stroke-linejoin:round;paint-order:stroke fill markers"
       x="380.65073"
       y="33.866676"
       id="text8"><tspan
         id="tspan8"
         style="font-style:normal;font-variant:normal;font-weight:normal;font-stretch:normal;font-size:21.1667px;font-family:Overpass;-inkscape-font-specification:'Overpass, @wght=900';font-variant-ligatures:normal;font-variant-caps:normal;font-variant-numeric:normal;font-variant-east-asian:normal;font-variation-settings:'wght' 900;fill:#000000;fill-opacity:1;stroke-width:4.8"
         x="0"
         y="0">120</tspan></text></g></svg>
