<?xml version="1.0" encoding="UTF-8" standalone="no"?>
<!-- Created with Inkscape (http://www.inkscape.org/) -->

<svg
   width="200"
   height="200"
   viewBox="0 0 52.916665 52.916666"
   version="1.1"
   id="svg1"
   xml:space="preserve"
   inkscape:version="1.3 (0e150ed6c4, 2023-07-21)"
   sodipodi:docname="speed_limit.svg"
   xmlns:inkscape="http://www.inkscape.org/namespaces/inkscape"
   xmlns:sodipodi="http://sodipodi.sourceforge.net/DTD/sodipodi-0.dtd"
   xmlns="http://www.w3.org/2000/svg"
   xmlns:svg="http://www.w3.org/2000/svg"><sodipodi:namedview
     id="namedview1"
     pagecolor="#ffffff"
     bordercolor="#000000"
     borderopacity="0.25"
     inkscape:showpageshadow="2"
     inkscape:pageopacity="0.0"
     inkscape:pagecheckerboard="0"
     inkscape:deskcolor="#d1d1d1"
     inkscape:document-units="px"
     inkscape:zoom="2.1291572"
     inkscape:cx="1733.7846"
     inkscape:cy="820.74729"
     inkscape:window-width="2560"
     inkscape:window-height="1057"
     inkscape:window-x="1912"
     inkscape:window-y="-8"
     inkscape:window-maximized="1"
     inkscape:current-layer="layer25"
     showgrid="true"><inkscape:grid
       id="grid14"
       units="px"
       originx="-1600.0001"
       originy="-399.99998"
       spacingx="52.916666"
       spacingy="52.916666"
       empcolor="#0099e5"
       empopacity="0.30196078"
       color="#0099e5"
       opacity="0.14901961"
       empspacing="5"
       dotted="false"
       gridanglex="30"
       gridanglez="30"
       visible="true" /></sodipodi:namedview><defs
     id="defs1" /><g
     inkscape:groupmode="layer"
     id="layer21"
     inkscape:label="30"
     transform="translate(-423.33335,-105.83332)"><circle
       style="fill:#e4dfe1;fill-opacity:1;stroke-width:4.79999;stroke-linecap:round;stroke-linejoin:round;paint-order:stroke fill markers"
       id="use62"
       cx="449.79169"
       cy="132.29166"
       r="26.458332" /><circle
       style="fill:#c20b10;fill-opacity:1;stroke-width:4.48117;stroke-linecap:round;stroke-linejoin:round;paint-order:stroke fill markers"
       id="use63"
       cx="449.79169"
       cy="132.29166"
       r="24.700937" /><circle
       style="fill:#ffffff;fill-opacity:1;stroke-width:3.174;stroke-linecap:round;stroke-linejoin:round;paint-order:stroke fill markers"
       id="use64"
       cx="449.79169"
       cy="132.29166"
       r="17.495613" /><text
       xml:space="preserve"
       style="font-style:normal;font-variant:normal;font-weight:normal;font-stretch:normal;font-size:26.4583px;line-height:0;font-family:Overpass;-inkscape-font-specification:'Overpass, @wght=900';font-variant-ligatures:normal;font-variant-caps:normal;font-variant-numeric:normal;font-variant-east-asian:normal;font-variation-settings:'wght' 900;letter-spacing:-1.32292px;word-spacing:7.9375px;display:none;fill:#000000;fill-opacity:1;stroke-width:4.79999;stroke-linecap:round;stroke-linejoin:round;paint-order:stroke fill markers"
       x="433.70502"
       y="141.55206"
       id="use66"><tspan
         sodipodi:role="line"
         id="tspan66"
         x="0"
         y="0">30</tspan></text><path
       d="m 441.61605,141.86956 q -2.35479,0 -4.1275,-1.15093 -1.7727,-1.16417 -2.59291,-3.24115 l 3.70416,-1.50812 q 1.15094,1.95792 3.01625,1.95792 1.01864,0 1.60073,-0.50271 0.59531,-0.51594 0.59531,-1.40229 0,-0.75406 -0.66146,-1.23031 -0.64823,-0.48948 -1.66687,-0.48948 h -2.09021 v -3.9952 h 2.09021 q 0.83343,0 1.28322,-0.50271 0.46302,-0.51594 0.46302,-1.40229 0,-0.75406 -0.5027,-1.24354 -0.50271,-0.50271 -1.29646,-0.50271 -0.68792,0 -1.25677,0.35719 -0.55562,0.34396 -0.99218,1.0451 l -3.73063,-1.45521 q 0.9525,-1.86531 2.51354,-2.87072 1.57427,-1.01865 3.51896,-1.01865 1.74624,0 3.05593,0.67469 1.32292,0.66146 2.05052,1.86531 0.74083,1.20385 0.74083,2.80458 0,1.27 -0.55562,2.32833 -0.55563,1.05833 -1.5875,1.77271 1.23031,0.48948 1.97114,1.71979 0.75406,1.23031 0.75406,2.77812 0,1.52135 -0.80697,2.69874 -0.80698,1.1774 -2.23573,1.85209 -1.41552,0.66145 -3.25437,0.66145 z m 14.92244,0 q -2.05052,0 -3.41312,-0.84666 -1.34938,-0.84667 -2.1299,-2.24896 -0.78052,-1.40229 -1.11125,-3.09562 -0.33072,-1.69333 -0.33072,-3.38666 0,-1.44198 0.21166,-2.83104 0.21167,-1.40229 0.68792,-2.61937 0.48948,-1.21708 1.29645,-2.14312 0.80698,-0.92604 1.98438,-1.45521 1.19062,-0.52917 2.80458,-0.52917 2.05052,0 3.39989,0.83344 1.3626,0.82021 2.14312,2.20927 0.78052,1.37583 1.11125,3.08239 0.33073,1.69333 0.33073,3.45281 0,1.42875 -0.21167,2.81781 -0.21166,1.38906 -0.70114,2.60614 -0.48948,1.21708 -1.29646,2.15635 -0.80698,0.93927 -1.98437,1.46844 -1.1774,0.52916 -2.79135,0.52916 z m 0,-3.94228 q 0.79375,0 1.33614,-0.4498 0.55563,-0.46302 0.88635,-1.24354 0.33073,-0.79374 0.47625,-1.79916 0.15875,-1.01864 0.15875,-2.14312 0,-1.05833 -0.14552,-2.06375 -0.14552,-1.00541 -0.47625,-1.81239 -0.3175,-0.80698 -0.87312,-1.28323 -0.5424,-0.47625 -1.3626,-0.47625 -0.79375,0 -1.34938,0.46302 -0.54239,0.44979 -0.88635,1.24354 -0.34396,0.78052 -0.50271,1.79916 -0.14552,1.00542 -0.14552,2.1299 0,1.05833 0.14552,2.06375 0.14552,1.00541 0.47625,1.81239 0.33073,0.80698 0.88636,1.28323 0.55562,0.47625 1.37583,0.47625 z"
       id="text67"
       style="font-size:26.4583px;line-height:0;font-family:Overpass;-inkscape-font-specification:'Overpass, @wght=900';font-variation-settings:'wght' 900;letter-spacing:-1.32292px;word-spacing:7.9375px;stroke-width:4.79999;stroke-linecap:round;stroke-linejoin:round;paint-order:stroke fill markers"
       aria-label="30" /></g></svg>
