<?xml version="1.0" encoding="UTF-8" standalone="no"?>
<!-- Created with Inkscape (http://www.inkscape.org/) -->

<svg
   width="200"
   height="200"
   viewBox="0 0 52.916665 52.916666"
   version="1.1"
   id="svg1"
   xml:space="preserve"
   xmlns="http://www.w3.org/2000/svg"
   xmlns:svg="http://www.w3.org/2000/svg"><defs
     id="defs1" /><g
     id="layer1"><circle
       style="fill:#e4dfe1;fill-opacity:1;stroke-width:4.79999;stroke-linecap:round;stroke-linejoin:round;paint-order:stroke fill markers"
       id="circle14"
       cx="26.458332"
       cy="26.458332"
       r="26.458332" /><circle
       style="fill:#c20b10;fill-opacity:1;stroke-width:4.48117;stroke-linecap:round;stroke-linejoin:round;paint-order:stroke fill markers"
       id="circle15"
       cx="26.458332"
       cy="26.458332"
       r="24.700937" /><circle
       style="fill:#ffffff;fill-opacity:1;stroke-width:3.174;stroke-linecap:round;stroke-linejoin:round;paint-order:stroke fill markers"
       id="circle16"
       cx="26.458332"
       cy="26.458332"
       r="17.495613" /><path
       style="font-size:26.4583px;line-height:0;font-family:Overpass;-inkscape-font-specification:'Overpass, @wght=900';font-variation-settings:'wght' 900;letter-spacing:-1.32292px;word-spacing:7.9375px;stroke-width:4.8;stroke-linecap:round;stroke-linejoin:round;paint-order:stroke fill markers"
       d="m 20.108348,35.718739 v -3.333746 h -9.445613 v -2.64583 l 9.472071,-12.541234 h 4.021662 v 11.297694 h 2.143122 v 3.88937 h -2.143122 v 3.333746 z m -4.04812,-7.223116 h 4.04812 V 22.93938 Z m 19.208711,7.540615 q -2.050518,0 -3.413121,-0.846665 -1.349373,-0.846666 -2.129893,-2.248956 -0.78052,-1.40229 -1.111249,-3.095621 -0.330728,-1.693331 -0.330728,-3.386662 0,-1.441978 0.211666,-2.831038 0.211666,-1.40229 0.687916,-2.619372 0.489478,-1.217082 1.296456,-2.143122 0.806979,-0.926041 1.984373,-1.455207 1.190623,-0.529166 2.80458,-0.529166 2.050518,0 3.399891,0.833437 1.362603,0.820207 2.143122,2.209268 0.78052,1.375831 1.111249,3.082392 0.330729,1.693331 0.330729,3.452808 0,1.428748 -0.211667,2.817809 -0.211666,1.38906 -0.701145,2.606142 -0.489478,1.217082 -1.296456,2.156352 -0.806978,0.939269 -1.984373,1.468435 -1.177394,0.529166 -2.79135,0.529166 z m 0,-3.942286 q 0.793749,0 1.336144,-0.449792 0.555624,-0.46302 0.886353,-1.24354 0.330729,-0.793749 0.476249,-1.799164 0.15875,-1.018645 0.15875,-2.143122 0,-1.058332 -0.145521,-2.063748 -0.14552,-1.005415 -0.476249,-1.812393 -0.3175,-0.806978 -0.873124,-1.283228 -0.542395,-0.476249 -1.362602,-0.476249 -0.793749,0 -1.349374,0.46302 -0.542395,0.449791 -0.886353,1.24354 -0.343957,0.78052 -0.502707,1.799165 -0.145521,1.005415 -0.145521,2.129893 0,1.058332 0.145521,2.063747 0.14552,1.005415 0.476249,1.812394 0.330729,0.806978 0.886353,1.283227 0.555624,0.47625 1.375832,0.47625 z"
       id="text16"
       aria-label="40" /><text
       xml:space="preserve"
       style="font-style:normal;font-variant:normal;font-weight:normal;font-stretch:normal;font-size:26.4583px;line-height:0;font-family:Overpass;-inkscape-font-specification:'Overpass, @wght=900';font-variant-ligatures:normal;font-variant-caps:normal;font-variant-numeric:normal;font-variant-east-asian:normal;font-variation-settings:'wght' 900;letter-spacing:-1.32292px;word-spacing:7.9375px;display:none;fill:#000000;fill-opacity:1;stroke-width:4.79999;stroke-linecap:round;stroke-linejoin:round;paint-order:stroke fill markers"
       x="10.371694"
       y="35.718739"
       id="text1"><tspan
         id="tspan1"
         style="font-style:normal;font-variant:normal;font-weight:normal;font-stretch:normal;font-size:26.4583px;font-family:Overpass;-inkscape-font-specification:'Overpass, @wght=900';font-variant-ligatures:normal;font-variant-caps:normal;font-variant-numeric:normal;font-variant-east-asian:normal;font-variation-settings:'wght' 900;fill:#000000;fill-opacity:1;stroke-width:4.8"
         x="0"
         y="0">40</tspan></text></g></svg>
