<?xml version="1.0" encoding="UTF-8" standalone="no"?>
<!-- Created with Inkscape (http://www.inkscape.org/) -->

<svg
   width="200"
   height="200"
   viewBox="0 0 52.916665 52.916666"
   version="1.1"
   id="svg1"
   xml:space="preserve"
   xmlns="http://www.w3.org/2000/svg"
   xmlns:svg="http://www.w3.org/2000/svg"><defs
     id="defs1" /><g
     id="layer2"
     transform="translate(-52.916668)"><circle
       style="fill:#e4dfe1;fill-opacity:1;stroke-width:4.79999;stroke-linecap:round;stroke-linejoin:round;paint-order:stroke fill markers"
       id="use25"
       cx="79.375"
       cy="26.458332"
       r="26.458332" /><circle
       style="fill:#c20b10;fill-opacity:1;stroke-width:4.48117;stroke-linecap:round;stroke-linejoin:round;paint-order:stroke fill markers"
       id="use26"
       cx="79.375"
       cy="26.458332"
       r="24.700937" /><circle
       style="fill:#ffffff;fill-opacity:1;stroke-width:3.174;stroke-linecap:round;stroke-linejoin:round;paint-order:stroke fill markers"
       id="use27"
       cx="79.375"
       cy="26.458332"
       r="17.495613" /><path
       style="font-size:26.4583px;line-height:0;font-family:Overpass;-inkscape-font-specification:'Overpass, @wght=900';font-variation-settings:'wght' 900;letter-spacing:-1.32292px;word-spacing:7.9375px;stroke-width:4.8;stroke-linecap:round;stroke-linejoin:round;paint-order:stroke fill markers"
       d="m 70.564389,36.036238 q -1.336144,0 -2.434163,-0.277812 -1.084791,-0.264583 -1.931456,-0.674687 -0.833437,-0.423332 -1.428748,-0.873124 l 2.143122,-3.280829 q 0.46302,0.291042 1.031874,0.555625 0.568853,0.264583 1.217081,0.436562 0.661458,0.171979 1.40229,0.171979 0.899582,0 1.574269,-0.291042 0.687916,-0.291041 1.058332,-0.873124 0.383645,-0.595311 0.383645,-1.481664 0,-0.648229 -0.224895,-1.150936 -0.211667,-0.515937 -0.661458,-0.806979 -0.436562,-0.291041 -1.124477,-0.291041 -0.952499,0 -1.56104,0.343958 -0.608541,0.343958 -1.164165,0.978957 l -3.545412,-1.904998 0.343957,-9.419154 h 10.90082 v 4.021661 h -7.037908 l -0.07937,2.354789 q 0.582083,-0.145521 1.058332,-0.224896 0.489479,-0.0926 1.058332,-0.0926 2.037289,0 3.399892,0.833437 1.375831,0.820207 2.063747,2.235726 0.701145,1.415519 0.701145,3.174996 0,2.050518 -0.93927,3.518954 -0.939269,1.455206 -2.553225,2.235726 -1.613957,0.78052 -3.651246,0.78052 z m 16.165997,0 q -2.050518,0 -3.41312,-0.846665 -1.349373,-0.846666 -2.129893,-2.248956 -0.78052,-1.40229 -1.111249,-3.095621 -0.330729,-1.693331 -0.330729,-3.386662 0,-1.441978 0.211667,-2.831038 0.211666,-1.40229 0.687916,-2.619372 0.489478,-1.217082 1.296456,-2.143122 0.806978,-0.926041 1.984373,-1.455207 1.190623,-0.529166 2.804579,-0.529166 2.050519,0 3.399892,0.833437 1.362602,0.820207 2.143122,2.209268 0.78052,1.375831 1.111249,3.082392 0.330729,1.693331 0.330729,3.452808 0,1.428748 -0.211667,2.817809 -0.211666,1.38906 -0.701145,2.606142 -0.489478,1.217082 -1.296456,2.156352 -0.806979,0.939269 -1.984373,1.468435 -1.177394,0.529166 -2.791351,0.529166 z m 0,-3.942286 q 0.793749,0 1.336145,-0.449792 0.555624,-0.46302 0.886353,-1.24354 0.330728,-0.793749 0.476249,-1.799164 0.15875,-1.018645 0.15875,-2.143122 0,-1.058332 -0.145521,-2.063748 -0.14552,-1.005415 -0.476249,-1.812393 -0.3175,-0.806978 -0.873124,-1.283228 -0.542395,-0.476249 -1.362603,-0.476249 -0.793749,0 -1.349373,0.46302 -0.542395,0.449791 -0.886353,1.24354 -0.343958,0.78052 -0.502708,1.799165 -0.14552,1.005415 -0.14552,2.129893 0,1.058332 0.14552,2.063747 0.145521,1.005415 0.47625,1.812394 0.330729,0.806978 0.886353,1.283227 0.555624,0.47625 1.375831,0.47625 z"
       id="use28"
       aria-label="50" /><text
       xml:space="preserve"
       style="font-style:normal;font-variant:normal;font-weight:normal;font-stretch:normal;font-size:26.4583px;line-height:0;font-family:Overpass;-inkscape-font-specification:'Overpass, @wght=900';font-variant-ligatures:normal;font-variant-caps:normal;font-variant-numeric:normal;font-variant-east-asian:normal;font-variation-settings:'wght' 900;letter-spacing:-1.32292px;word-spacing:7.9375px;display:none;fill:#000000;fill-opacity:1;stroke-width:4.79999;stroke-linecap:round;stroke-linejoin:round;paint-order:stroke fill markers"
       x="63.288357"
       y="35.718739"
       id="text2"><tspan
         id="tspan2"
         style="font-style:normal;font-variant:normal;font-weight:normal;font-stretch:normal;font-size:26.4583px;font-family:Overpass;-inkscape-font-specification:'Overpass, @wght=900';font-variant-ligatures:normal;font-variant-caps:normal;font-variant-numeric:normal;font-variant-east-asian:normal;font-variation-settings:'wght' 900;fill:#000000;fill-opacity:1;stroke-width:4.8"
         x="0"
         y="0">50</tspan></text></g></svg>
