<?xml version="1.0" encoding="UTF-8" standalone="no"?>
<!-- Created with Inkscape (http://www.inkscape.org/) -->

<svg
   width="200"
   height="200"
   viewBox="0 0 52.916665 52.916666"
   version="1.1"
   id="svg1"
   xml:space="preserve"
   xmlns="http://www.w3.org/2000/svg"
   xmlns:svg="http://www.w3.org/2000/svg"><defs
     id="defs1" /><g
     id="layer3"
     transform="translate(-105.83334)"><circle
       style="fill:#e4dfe1;fill-opacity:1;stroke-width:4.79999;stroke-linecap:round;stroke-linejoin:round;paint-order:stroke fill markers"
       id="use29"
       cx="132.29167"
       cy="26.458332"
       r="26.458332" /><circle
       style="fill:#c20b10;fill-opacity:1;stroke-width:4.48117;stroke-linecap:round;stroke-linejoin:round;paint-order:stroke fill markers"
       id="use30"
       cx="132.29167"
       cy="26.458332"
       r="24.700937" /><circle
       style="fill:#ffffff;fill-opacity:1;stroke-width:3.174;stroke-linecap:round;stroke-linejoin:round;paint-order:stroke fill markers"
       id="use31"
       cx="132.29167"
       cy="26.458332"
       r="17.495613" /><path
       style="font-size:26.4583px;line-height:0;font-family:Overpass;-inkscape-font-specification:'Overpass, @wght=900';font-variation-settings:'wght' 900;letter-spacing:-1.32292px;word-spacing:7.9375px;stroke-width:4.8;stroke-linecap:round;stroke-linejoin:round;paint-order:stroke fill markers"
       d="m 124.80396,36.036238 q -1.69333,0 -3.00301,-0.529166 -1.29646,-0.542395 -2.18281,-1.508123 -0.88636,-0.965728 -1.34938,-2.262185 -0.44979,-1.296456 -0.44979,-2.817808 0,-2.923643 1.13771,-5.423952 1.15094,-2.513538 3.65125,-4.246557 2.51353,-1.746248 6.58811,-2.368018 v 3.942287 q -1.21708,0.185208 -2.48708,0.608541 -1.25677,0.423333 -2.30187,1.177394 -1.0451,0.754062 -1.61396,1.918227 0.47625,-0.277812 1.09802,-0.449791 0.62177,-0.185208 1.38906,-0.185208 1.8124,0 3.22792,0.780519 1.42874,0.767291 2.24895,2.143123 0.82021,1.362602 0.82021,3.161767 0,1.799164 -0.87312,3.161766 -0.87313,1.362603 -2.40771,2.129893 -1.52135,0.767291 -3.4925,0.767291 z m 0,-3.942286 q 0.75407,0 1.34938,-0.251354 0.60854,-0.251354 0.9525,-0.714374 0.34395,-0.47625 0.34395,-1.150936 0,-0.978958 -0.75406,-1.56104 -0.75406,-0.582083 -1.89177,-0.582083 -0.78052,0 -1.38906,0.277812 -0.60854,0.277813 -0.96572,0.767291 -0.34396,0.476249 -0.34396,1.09802 0,0.674686 0.34396,1.150936 0.35718,0.46302 0.96572,0.714374 0.60854,0.251354 1.38906,0.251354 z m 15.47809,3.942286 q -2.05052,0 -3.41312,-0.846665 -1.34937,-0.846666 -2.12989,-2.248956 -0.78052,-1.40229 -1.11125,-3.095621 -0.33073,-1.693331 -0.33073,-3.386662 0,-1.441978 0.21167,-2.831038 0.21166,-1.40229 0.68791,-2.619372 0.48948,-1.217082 1.29646,-2.143122 0.80698,-0.926041 1.98437,-1.455207 1.19062,-0.529166 2.80458,-0.529166 2.05052,0 3.39989,0.833437 1.3626,0.820207 2.14312,2.209268 0.78052,1.375831 1.11125,3.082392 0.33073,1.693331 0.33073,3.452808 0,1.428748 -0.21166,2.817809 -0.21167,1.38906 -0.70115,2.606142 -0.48948,1.217082 -1.29646,2.156352 -0.80697,0.939269 -1.98437,1.468435 -1.17739,0.529166 -2.79135,0.529166 z m 0,-3.942286 q 0.79375,0 1.33614,-0.449792 0.55563,-0.46302 0.88636,-1.24354 0.33073,-0.793749 0.47625,-1.799164 0.15875,-1.018645 0.15875,-2.143122 0,-1.058332 -0.14552,-2.063748 -0.14552,-1.005415 -0.47625,-1.812393 -0.3175,-0.806978 -0.87313,-1.283228 -0.54239,-0.476249 -1.3626,-0.476249 -0.79375,0 -1.34937,0.46302 -0.5424,0.449791 -0.88636,1.24354 -0.34395,0.78052 -0.5027,1.799165 -0.14552,1.005415 -0.14552,2.129893 0,1.058332 0.14552,2.063747 0.14552,1.005415 0.47625,1.812394 0.33072,0.806978 0.88635,1.283227 0.55562,0.47625 1.37583,0.47625 z"
       id="use32"
       aria-label="60" /><text
       xml:space="preserve"
       style="font-style:normal;font-variant:normal;font-weight:normal;font-stretch:normal;font-size:26.4583px;line-height:0;font-family:Overpass;-inkscape-font-specification:'Overpass, @wght=900';font-variant-ligatures:normal;font-variant-caps:normal;font-variant-numeric:normal;font-variant-east-asian:normal;font-variation-settings:'wght' 900;letter-spacing:-1.32292px;word-spacing:7.9375px;display:none;fill:#000000;fill-opacity:1;stroke-width:4.79999;stroke-linecap:round;stroke-linejoin:round;paint-order:stroke fill markers"
       x="116.20502"
       y="35.718739"
       id="text3"><tspan
         id="tspan3"
         style="font-style:normal;font-variant:normal;font-weight:normal;font-stretch:normal;font-size:26.4583px;font-family:Overpass;-inkscape-font-specification:'Overpass, @wght=900';font-variant-ligatures:normal;font-variant-caps:normal;font-variant-numeric:normal;font-variant-east-asian:normal;font-variation-settings:'wght' 900;fill:#000000;fill-opacity:1;stroke-width:4.8"
         x="0"
         y="0">60</tspan></text></g></svg>
