<?xml version="1.0" encoding="UTF-8" standalone="no"?>
<!-- Created with Inkscape (http://www.inkscape.org/) -->

<svg
   width="200"
   height="200"
   viewBox="0 0 52.916665 52.916666"
   version="1.1"
   id="svg1"
   xml:space="preserve"
   xmlns="http://www.w3.org/2000/svg"
   xmlns:svg="http://www.w3.org/2000/svg"><defs
     id="defs1" /><g
     id="layer4"
     transform="translate(-158.75001)"><circle
       style="fill:#e4dfe1;fill-opacity:1;stroke-width:4.79999;stroke-linecap:round;stroke-linejoin:round;paint-order:stroke fill markers"
       id="use33"
       cx="185.20834"
       cy="26.458332"
       r="26.458332" /><circle
       style="fill:#c20b10;fill-opacity:1;stroke-width:4.48117;stroke-linecap:round;stroke-linejoin:round;paint-order:stroke fill markers"
       id="use34"
       cx="185.20834"
       cy="26.458332"
       r="24.700937" /><circle
       style="fill:#ffffff;fill-opacity:1;stroke-width:3.174;stroke-linecap:round;stroke-linejoin:round;paint-order:stroke fill markers"
       id="use35"
       cx="185.20834"
       cy="26.458332"
       r="17.495613" /><path
       style="font-size:26.4583px;line-height:0;font-family:Overpass;-inkscape-font-specification:'Overpass, @wght=900';font-variation-settings:'wght' 900;letter-spacing:-1.32292px;word-spacing:7.9375px;stroke-width:4.8;stroke-linecap:round;stroke-linejoin:round;paint-order:stroke fill markers"
       d="m 173.27564,35.718739 q 0,-2.96333 0.48948,-5.490098 0.48948,-2.539996 1.45521,-4.762494 0.97895,-2.235726 2.44739,-4.273015 h -7.99041 v -3.995203 h 12.93811 V 20.4523 q -1.37583,1.521352 -2.36802,3.545412 -0.99218,2.02406 -1.62718,4.19364 -0.62177,2.156352 -0.92604,4.127495 -0.29104,1.971143 -0.29104,3.399892 z m 18.40171,0.317499 q -2.05052,0 -3.41312,-0.846665 -1.34938,-0.846666 -2.1299,-2.248956 -0.78052,-1.40229 -1.11124,-3.095621 -0.33073,-1.693331 -0.33073,-3.386662 0,-1.441978 0.21166,-2.831038 0.21167,-1.40229 0.68792,-2.619372 0.48948,-1.217082 1.29646,-2.143122 0.80697,-0.926041 1.98437,-1.455207 1.19062,-0.529166 2.80458,-0.529166 2.05052,0 3.39989,0.833437 1.3626,0.820207 2.14312,2.209268 0.78052,1.375831 1.11125,3.082392 0.33073,1.693331 0.33073,3.452808 0,1.428748 -0.21167,2.817809 -0.21166,1.38906 -0.70114,2.606142 -0.48948,1.217082 -1.29646,2.156352 -0.80698,0.939269 -1.98437,1.468435 -1.1774,0.529166 -2.79135,0.529166 z m 0,-3.942286 q 0.79375,0 1.33614,-0.449792 0.55563,-0.46302 0.88636,-1.24354 0.33072,-0.793749 0.47624,-1.799164 0.15875,-1.018645 0.15875,-2.143122 0,-1.058332 -0.14552,-2.063748 -0.14552,-1.005415 -0.47625,-1.812393 -0.3175,-0.806978 -0.87312,-1.283228 -0.54239,-0.476249 -1.3626,-0.476249 -0.79375,0 -1.34938,0.46302 -0.54239,0.449791 -0.88635,1.24354 -0.34396,0.78052 -0.50271,1.799165 -0.14552,1.005415 -0.14552,2.129893 0,1.058332 0.14552,2.063747 0.14552,1.005415 0.47625,1.812394 0.33073,0.806978 0.88636,1.283227 0.55562,0.47625 1.37583,0.47625 z"
       id="use36"
       aria-label="70" /><text
       xml:space="preserve"
       style="font-style:normal;font-variant:normal;font-weight:normal;font-stretch:normal;font-size:26.4583px;line-height:0;font-family:Overpass;-inkscape-font-specification:'Overpass, @wght=900';font-variant-ligatures:normal;font-variant-caps:normal;font-variant-numeric:normal;font-variant-east-asian:normal;font-variation-settings:'wght' 900;letter-spacing:-1.32292px;word-spacing:7.9375px;display:none;fill:#000000;fill-opacity:1;stroke-width:4.79999;stroke-linecap:round;stroke-linejoin:round;paint-order:stroke fill markers"
       x="169.12169"
       y="35.718739"
       id="text4"><tspan
         id="tspan4"
         style="font-style:normal;font-variant:normal;font-weight:normal;font-stretch:normal;font-size:26.4583px;font-family:Overpass;-inkscape-font-specification:'Overpass, @wght=900';font-variant-ligatures:normal;font-variant-caps:normal;font-variant-numeric:normal;font-variant-east-asian:normal;font-variation-settings:'wght' 900;fill:#000000;fill-opacity:1;stroke-width:4.8"
         x="0"
         y="0">70</tspan></text></g></svg>
