<?xml version="1.0" encoding="UTF-8" standalone="no"?>
<!-- Created with Inkscape (http://www.inkscape.org/) -->

<svg
   width="200"
   height="200"
   viewBox="0 0 52.916665 52.916666"
   version="1.1"
   id="svg1"
   xml:space="preserve"
   xmlns="http://www.w3.org/2000/svg"
   xmlns:svg="http://www.w3.org/2000/svg"><defs
     id="defs1" /><g
     id="layer5"
     transform="translate(-211.66668)"><circle
       style="fill:#e4dfe1;fill-opacity:1;stroke-width:4.79999;stroke-linecap:round;stroke-linejoin:round;paint-order:stroke fill markers"
       id="use37"
       cx="238.12502"
       cy="26.458332"
       r="26.458332" /><circle
       style="fill:#c20b10;fill-opacity:1;stroke-width:4.48117;stroke-linecap:round;stroke-linejoin:round;paint-order:stroke fill markers"
       id="use38"
       cx="238.12502"
       cy="26.458332"
       r="24.700937" /><circle
       style="fill:#ffffff;fill-opacity:1;stroke-width:3.174;stroke-linecap:round;stroke-linejoin:round;paint-order:stroke fill markers"
       id="use39"
       cx="238.12502"
       cy="26.458332"
       r="17.495613" /><path
       style="font-size:26.4583px;line-height:0;font-family:Overpass;-inkscape-font-specification:'Overpass, @wght=900';font-variation-settings:'wght' 900;letter-spacing:-1.32292px;word-spacing:7.9375px;stroke-width:4.8;stroke-linecap:round;stroke-linejoin:round;paint-order:stroke fill markers"
       d="m 230.50502,36.036238 q -2.14313,0 -3.67771,-0.740832 -1.53458,-0.740833 -2.35479,-2.090206 -0.8202,-1.362602 -0.8202,-3.201454 0,-1.534582 0.79375,-2.659059 0.80697,-1.124478 2.24895,-1.759477 -0.50271,-0.251354 -1.05833,-0.754062 -0.5424,-0.502707 -0.92604,-1.256769 -0.37042,-0.754062 -0.37042,-1.772706 0,-1.481665 0.71438,-2.579684 0.7276,-1.111249 2.10343,-1.71979 1.37583,-0.62177 3.34698,-0.62177 1.97114,0 3.34697,0.62177 1.38906,0.608541 2.11667,1.71979 0.7276,1.098019 0.7276,2.579684 0,0.978957 -0.39688,1.733019 -0.38364,0.754061 -0.93927,1.256769 -0.55562,0.502707 -1.0451,0.740832 1.37583,0.608541 2.23573,1.799165 0.85989,1.177394 0.85989,2.672288 0,1.838852 -0.8202,3.201454 -0.82021,1.349373 -2.36802,2.090206 -1.54781,0.740832 -3.71739,0.740832 z m 0,-3.677703 q 0.80697,0 1.42874,-0.304271 0.635,-0.3175 0.99219,-0.846666 0.35719,-0.542395 0.35719,-1.23031 0,-0.740833 -0.35719,-1.269999 -0.35719,-0.529166 -0.99219,-0.806978 -0.62177,-0.277812 -1.42874,-0.277812 -0.83344,0 -1.45521,0.277812 -0.62177,0.277812 -0.96573,0.806978 -0.33073,0.529166 -0.33073,1.269999 0,0.687915 0.33073,1.23031 0.34396,0.529166 0.96573,0.846666 0.62177,0.304271 1.45521,0.304271 z m 0,-8.493115 q 0.93927,0 1.50812,-0.489478 0.58208,-0.489479 0.58208,-1.256769 0,-0.701145 -0.58208,-1.177395 -0.56885,-0.489478 -1.50812,-0.489478 -1.00542,0 -1.53458,0.489478 -0.52917,0.47625 -0.52917,1.177395 0,0.76729 0.52917,1.256769 0.52916,0.489478 1.53458,0.489478 z m 15.50455,12.170818 q -2.05052,0 -3.41312,-0.846665 -1.34938,-0.846666 -2.12989,-2.248956 -0.78052,-1.40229 -1.11125,-3.095621 -0.33073,-1.693331 -0.33073,-3.386662 0,-1.441978 0.21166,-2.831038 0.21167,-1.40229 0.68792,-2.619372 0.48948,-1.217082 1.29646,-2.143122 0.80697,-0.926041 1.98437,-1.455207 1.19062,-0.529166 2.80458,-0.529166 2.05052,0 3.39989,0.833437 1.3626,0.820207 2.14312,2.209268 0.78052,1.375831 1.11125,3.082392 0.33073,1.693331 0.33073,3.452808 0,1.428748 -0.21167,2.817809 -0.21166,1.38906 -0.70114,2.606142 -0.48948,1.217082 -1.29646,2.156352 -0.80698,0.939269 -1.98437,1.468435 -1.17739,0.529166 -2.79135,0.529166 z m 0,-3.942286 q 0.79375,0 1.33614,-0.449792 0.55563,-0.46302 0.88636,-1.24354 0.33072,-0.793749 0.47625,-1.799164 0.15875,-1.018645 0.15875,-2.143122 0,-1.058332 -0.14553,-2.063748 -0.14552,-1.005415 -0.47624,-1.812393 -0.3175,-0.806978 -0.87313,-1.283228 -0.54239,-0.476249 -1.3626,-0.476249 -0.79375,0 -1.34937,0.46302 -0.5424,0.449791 -0.88636,1.24354 -0.34396,0.78052 -0.50271,1.799165 -0.14552,1.005415 -0.14552,2.129893 0,1.058332 0.14552,2.063747 0.14553,1.005415 0.47625,1.812394 0.33073,0.806978 0.88636,1.283227 0.55562,0.47625 1.37583,0.47625 z"
       id="use40"
       aria-label="80" /><text
       xml:space="preserve"
       style="font-style:normal;font-variant:normal;font-weight:normal;font-stretch:normal;font-size:26.4583px;line-height:0;font-family:Overpass;-inkscape-font-specification:'Overpass, @wght=900';font-variant-ligatures:normal;font-variant-caps:normal;font-variant-numeric:normal;font-variant-east-asian:normal;font-variation-settings:'wght' 900;letter-spacing:-1.32292px;word-spacing:7.9375px;display:none;fill:#000000;fill-opacity:1;stroke-width:4.79999;stroke-linecap:round;stroke-linejoin:round;paint-order:stroke fill markers"
       x="222.03836"
       y="35.718739"
       id="text5"><tspan
         id="tspan5"
         style="font-style:normal;font-variant:normal;font-weight:normal;font-stretch:normal;font-size:26.4583px;font-family:Overpass;-inkscape-font-specification:'Overpass, @wght=900';font-variant-ligatures:normal;font-variant-caps:normal;font-variant-numeric:normal;font-variant-east-asian:normal;font-variation-settings:'wght' 900;fill:#000000;fill-opacity:1;stroke-width:4.8"
         x="0"
         y="0">80</tspan></text></g></svg>
