<?xml version="1.0" encoding="UTF-8" standalone="no"?>
<!-- Created with Inkscape (http://www.inkscape.org/) -->

<svg
   width="200"
   height="200"
   viewBox="0 0 52.916665 52.916666"
   version="1.1"
   id="svg1"
   xml:space="preserve"
   xmlns="http://www.w3.org/2000/svg"
   xmlns:svg="http://www.w3.org/2000/svg"><defs
     id="defs1" /><g
     id="layer6"
     transform="translate(-264.58335)"><circle
       style="fill:#e4dfe1;fill-opacity:1;stroke-width:4.79999;stroke-linecap:round;stroke-linejoin:round;paint-order:stroke fill markers"
       id="use41"
       cx="291.04169"
       cy="26.458332"
       r="26.458332" /><circle
       style="fill:#c20b10;fill-opacity:1;stroke-width:4.48117;stroke-linecap:round;stroke-linejoin:round;paint-order:stroke fill markers"
       id="use42"
       cx="291.04169"
       cy="26.458332"
       r="24.700937" /><circle
       style="fill:#ffffff;fill-opacity:1;stroke-width:3.174;stroke-linecap:round;stroke-linejoin:round;paint-order:stroke fill markers"
       id="use43"
       cx="291.04169"
       cy="26.458332"
       r="17.495613" /><path
       style="font-size:26.4583px;line-height:0;font-family:Overpass;-inkscape-font-specification:'Overpass, @wght=900';font-variation-settings:'wght' 900;letter-spacing:-1.32292px;word-spacing:7.9375px;stroke-width:4.8;stroke-linecap:round;stroke-linejoin:round;paint-order:stroke fill markers"
       d="m 279.0296,36.036238 v -3.836453 q 1.24354,0 2.48708,-0.343958 1.25676,-0.357187 2.27541,-1.24354 1.03187,-0.899582 1.5875,-2.513539 -0.55563,0.357187 -1.24354,0.555625 -0.68792,0.185208 -1.50813,0.185208 -1.87854,0 -3.33374,-0.687916 -1.45521,-0.701145 -2.28864,-2.037289 -0.83344,-1.336144 -0.83344,-3.280829 0,-1.838852 0.87312,-3.174996 0.88636,-1.336144 2.43417,-2.050519 1.54781,-0.727603 3.57187,-0.727603 2.43416,0 3.9952,0.926041 1.56104,0.912811 2.3151,2.539996 0.75406,1.613957 0.75406,3.704162 0,3.651246 -1.20385,6.323534 -1.19062,2.659059 -3.65125,4.127495 -2.44739,1.468435 -6.23092,1.534581 z m 3.9952,-11.033111 q 0.75406,0 1.32291,-0.238124 0.58209,-0.238125 0.89959,-0.714375 0.3175,-0.489478 0.3175,-1.24354 0,-0.648228 -0.3175,-1.137707 -0.3175,-0.502707 -0.88636,-0.780519 -0.56885,-0.277813 -1.30968,-0.277813 -0.91281,0 -1.54781,0.277813 -0.62177,0.277812 -0.9525,0.76729 -0.33073,0.489479 -0.33073,1.124478 0,0.740832 0.33073,1.24354 0.34396,0.489479 0.96573,0.740833 0.63499,0.238124 1.50812,0.238124 z m 16.31155,11.033111 q -2.05051,0 -3.41312,-0.846665 -1.34937,-0.846666 -2.12989,-2.248956 -0.78052,-1.40229 -1.11125,-3.095621 -0.33073,-1.693331 -0.33073,-3.386662 0,-1.441978 0.21167,-2.831038 0.21167,-1.40229 0.68792,-2.619372 0.48947,-1.217082 1.29645,-2.143122 0.80698,-0.926041 1.98438,-1.455207 1.19062,-0.529166 2.80457,-0.529166 2.05052,0 3.3999,0.833437 1.3626,0.820207 2.14312,2.209268 0.78052,1.375831 1.11125,3.082392 0.33073,1.693331 0.33073,3.452808 0,1.428748 -0.21167,2.817809 -0.21167,1.38906 -0.70115,2.606142 -0.48947,1.217082 -1.29645,2.156352 -0.80698,0.939269 -1.98437,1.468435 -1.1774,0.529166 -2.79136,0.529166 z m 0,-3.942286 q 0.79375,0 1.33615,-0.449792 0.55562,-0.46302 0.88635,-1.24354 0.33073,-0.793749 0.47625,-1.799164 0.15875,-1.018645 0.15875,-2.143122 0,-1.058332 -0.14552,-2.063748 -0.14552,-1.005415 -0.47625,-1.812393 -0.3175,-0.806978 -0.87312,-1.283228 -0.5424,-0.476249 -1.36261,-0.476249 -0.79374,0 -1.34937,0.46302 -0.54239,0.449791 -0.88635,1.24354 -0.34396,0.78052 -0.50271,1.799165 -0.14552,1.005415 -0.14552,2.129893 0,1.058332 0.14552,2.063747 0.14552,1.005415 0.47625,1.812394 0.33073,0.806978 0.88635,1.283227 0.55563,0.47625 1.37583,0.47625 z"
       id="use44"
       aria-label="90" /><text
       xml:space="preserve"
       style="font-style:normal;font-variant:normal;font-weight:normal;font-stretch:normal;font-size:26.4583px;line-height:0;font-family:Overpass;-inkscape-font-specification:'Overpass, @wght=900';font-variant-ligatures:normal;font-variant-caps:normal;font-variant-numeric:normal;font-variant-east-asian:normal;font-variation-settings:'wght' 900;letter-spacing:-1.32292px;word-spacing:7.9375px;display:none;fill:#000000;fill-opacity:1;stroke-width:4.79999;stroke-linecap:round;stroke-linejoin:round;paint-order:stroke fill markers"
       x="274.95502"
       y="35.718739"
       id="text6"><tspan
         id="tspan6"
         style="font-style:normal;font-variant:normal;font-weight:normal;font-stretch:normal;font-size:26.4583px;font-family:Overpass;-inkscape-font-specification:'Overpass, @wght=900';font-variant-ligatures:normal;font-variant-caps:normal;font-variant-numeric:normal;font-variant-east-asian:normal;font-variation-settings:'wght' 900;fill:#000000;fill-opacity:1;stroke-width:4.8"
         x="0"
         y="0">90</tspan></text></g></svg>
