<?xml version="1.0" encoding="UTF-8" standalone="no"?>
<!-- Created with Inkscape (http://www.inkscape.org/) -->

<svg
   width="200"
   height="200"
   viewBox="0 0 52.916665 52.916666"
   version="1.1"
   id="svg1"
   xml:space="preserve"
   inkscape:version="1.3 (0e150ed6c4, 2023-07-21)"
   sodipodi:docname="speed_limit.svg"
   xmlns:inkscape="http://www.inkscape.org/namespaces/inkscape"
   xmlns:sodipodi="http://sodipodi.sourceforge.net/DTD/sodipodi-0.dtd"
   xmlns="http://www.w3.org/2000/svg"
   xmlns:svg="http://www.w3.org/2000/svg"><sodipodi:namedview
     id="namedview1"
     pagecolor="#ffffff"
     bordercolor="#000000"
     borderopacity="0.25"
     inkscape:showpageshadow="2"
     inkscape:pageopacity="0.0"
     inkscape:pagecheckerboard="0"
     inkscape:deskcolor="#d1d1d1"
     inkscape:document-units="px"
     inkscape:zoom="2.1291572"
     inkscape:cx="1733.7846"
     inkscape:cy="820.74729"
     inkscape:window-width="2560"
     inkscape:window-height="1057"
     inkscape:window-x="1912"
     inkscape:window-y="-8"
     inkscape:window-maximized="1"
     inkscape:current-layer="layer25"
     showgrid="true"><inkscape:grid
       id="grid14"
       units="px"
       originx="-1200"
       originy="-599.99998"
       spacingx="52.916666"
       spacingy="52.916666"
       empcolor="#0099e5"
       empopacity="0.30196078"
       color="#0099e5"
       opacity="0.14901961"
       empspacing="5"
       dotted="false"
       gridanglex="30"
       gridanglez="30"
       visible="true" /></sodipodi:namedview><defs
     id="defs1" /><g
     inkscape:groupmode="layer"
     id="layer23"
     inkscape:label="het_toc_do_toi_da"
     transform="matrix(0.86659804,0,0,0.86659801,-273.79351,-134.78611)"
     style="display:inline"><g
       inkscape:label="Layer 1"
       id="layer1-53"
       transform="matrix(0.08723216,0,0,0.08723216,315.85337,190.77656)"><circle
         style="opacity:1;fill:#ffffff;fill-opacity:1;fill-rule:nonzero;stroke:none;stroke-width:5.65454;stroke-linecap:round;stroke-linejoin:miter;stroke-miterlimit:4;stroke-dasharray:none;stroke-opacity:1;paint-order:stroke fill markers"
         id="path836-5"
         cx="351.00003"
         cy="-54.000015"
         r="340" /><path
         style="font-style:normal;font-variant:normal;font-weight:bold;font-stretch:normal;font-size:414.864px;line-height:0;font-family:Giaothong1;-inkscape-font-specification:'Giaothong1 Bold';letter-spacing:0px;word-spacing:0px;opacity:1;fill:#ffffff;fill-opacity:1;fill-rule:nonzero;stroke:#000000;stroke-width:7.60019;stroke-linecap:butt;stroke-linejoin:miter;stroke-miterlimit:8;stroke-dasharray:none;stroke-opacity:1;paint-order:normal"
         d="m 450.47923,-225.1999 c -39.7331,0 -71.72067,31.98753 -71.72067,71.72067 V 43.523101 c 0,39.733139 31.98757,71.720039 71.72067,71.720039 39.73315,0 71.72075,-31.9869 71.72075,-71.720039 V -153.47923 c 0,-39.73314 -31.9876,-71.72067 -71.72075,-71.72067 z m 0,48.62119 c 12.79725,0 23.09951,10.30225 23.09951,23.09948 V 43.523101 c 0,12.79726 -10.30226,23.09951 -23.09951,23.09951 -12.79723,0 -23.0995,-10.30225 -23.0995,-23.09951 V -153.47923 c 0,-12.79723 10.30227,-23.09948 23.0995,-23.09948 z"
         id="rect984"
         inkscape:connector-curvature="0" /><path
         d="m 267.97149,-102.24344 q 12.80702,0 25.61404,7.142381 12.80701,7.14236 18.96425,16.501345 6.40351,9.358988 8.6201,19.703097 2.4629,10.097832 2.4629,21.919708 v 75.610658 q 0,11.082999 -0.73889,18.717953 -0.73884,7.388654 -5.91093,21.180852 -4.92574,13.545866 -24.38258,26.106586 -19.45682,12.56076 -41.62282,12.56076 -17.24021,0 -32.75641,-8.12754 Q 202.95124,100.69854 194.33114,88.630376 185.95732,76.315933 182.75557,64.001501 179.8001,51.687058 179.8001,38.633749 v -8.6201 h 49.01148 v 8.6201 q 0,4.925777 0.24629,10.097843 0.24628,4.925766 5.17207,12.560731 5.17205,7.634944 17.73278,7.634944 13.54589,0 17.9791,-7.388666 4.67946,-7.388665 5.17206,-11.575554 0.49258,-4.43321 0.49258,-9.358977 v -5.664643 -65.512825 q 0,-4.433211 -0.24632,-9.358976 -0.24626,-5.172066 -5.66463,-12.807021 -5.17205,-7.634965 -17.24021,-7.634965 -17.73279,0 -23.64372,17.732808 H 185.95732 V -222.1861 h 137.67546 v 44.82456 h -94.8212 v 90.387991 q 17.48651,-15.269891 39.15991,-15.269891 z"
         style="font-style:normal;font-variant:normal;font-weight:bold;font-stretch:normal;font-size:412.477px;line-height:0;font-family:Giaothong1;-inkscape-font-specification:'Giaothong1 Bold';letter-spacing:0px;word-spacing:0px;fill:#ffffff;fill-opacity:1;stroke:#000000;stroke-width:7.60019;stroke-linecap:butt;stroke-linejoin:miter;stroke-miterlimit:8;stroke-dasharray:none;stroke-opacity:1;paint-order:normal"
         id="path827"
         inkscape:connector-curvature="0" /><rect
         transform="rotate(45)"
         style="opacity:1;fill:#000000;fill-opacity:1;fill-rule:nonzero;stroke:none;stroke-width:2.04701;stroke-linecap:round;stroke-linejoin:miter;stroke-miterlimit:4;stroke-dasharray:none;stroke-opacity:1;paint-order:stroke fill markers"
         id="rect856"
         width="9.8000002"
         height="660"
         x="165.0106"
         y="-616.37823" /><rect
         transform="rotate(45)"
         y="-616.37823"
         x="185.06065"
         height="660"
         width="9.8000002"
         id="rect858"
         style="opacity:1;fill:#000000;fill-opacity:1;fill-rule:nonzero;stroke:none;stroke-width:2.04701;stroke-linecap:round;stroke-linejoin:miter;stroke-miterlimit:4;stroke-dasharray:none;stroke-opacity:1;paint-order:stroke fill markers" /><rect
         transform="rotate(45)"
         y="-616.37823"
         x="205.11058"
         height="660"
         width="9.8000002"
         id="rect860"
         style="opacity:1;fill:#000000;fill-opacity:1;fill-rule:nonzero;stroke:none;stroke-width:2.04701;stroke-linecap:round;stroke-linejoin:miter;stroke-miterlimit:4;stroke-dasharray:none;stroke-opacity:1;paint-order:stroke fill markers" /><rect
         transform="rotate(45)"
         style="opacity:1;fill:#000000;fill-opacity:1;fill-rule:nonzero;stroke:none;stroke-width:2.04701;stroke-linecap:round;stroke-linejoin:miter;stroke-miterlimit:4;stroke-dasharray:none;stroke-opacity:1;paint-order:stroke fill markers"
         id="rect862"
         width="9.8000002"
         height="660"
         x="225.16063"
         y="-616.37823" /><rect
         transform="rotate(45)"
         y="-616.37823"
         x="245.21068"
         height="660"
         width="9.8000002"
         id="rect864"
         style="opacity:1;fill:#000000;fill-opacity:1;fill-rule:nonzero;stroke:none;stroke-width:2.04701;stroke-linecap:round;stroke-linejoin:miter;stroke-miterlimit:4;stroke-dasharray:none;stroke-opacity:1;paint-order:stroke fill markers" /><path
         id="path866"
         d="M 350.99979,-404.00019 A 349.99998,349.99998 0 0 0 1,-53.99986 349.99998,349.99998 0 0 0 350.99979,296 349.99998,349.99998 0 0 0 701.00016,-53.99986 349.99998,349.99998 0 0 0 350.99979,-404.00019 Z m 0,49.70032 a 300.29999,300.29999 0 0 1 300.3,300.30001 300.29999,300.29999 0 0 1 -300.3,300.30006 300.29999,300.29999 0 0 1 -300.3,-300.30006 300.29999,300.29999 0 0 1 300.3,-300.30001 z"
         style="opacity:1;fill:#0046aa;fill-opacity:1;fill-rule:nonzero;stroke:none;stroke-width:315.815;stroke-linecap:round;stroke-linejoin:round;stroke-miterlimit:4;stroke-dasharray:none;stroke-opacity:1;paint-order:stroke fill markers"
         inkscape:connector-curvature="0" /></g></g></svg>
