<?xml version="1.0" encoding="UTF-8" standalone="no"?>
<!-- Created with Inkscape (http://www.inkscape.org/) -->

<svg
   width="200.00002"
   height="200.00002"
   viewBox="0 0 52.916669 52.91667"
   version="1.1"
   id="svg1"
   xml:space="preserve"
   inkscape:version="1.3 (0e150ed6c4, 2023-07-21)"
   sodipodi:docname="speed_limit.svg"
   xmlns:inkscape="http://www.inkscape.org/namespaces/inkscape"
   xmlns:sodipodi="http://sodipodi.sourceforge.net/DTD/sodipodi-0.dtd"
   xmlns="http://www.w3.org/2000/svg"
   xmlns:svg="http://www.w3.org/2000/svg"><sodipodi:namedview
     id="namedview1"
     pagecolor="#ffffff"
     bordercolor="#000000"
     borderopacity="0.25"
     inkscape:showpageshadow="2"
     inkscape:pageopacity="0.0"
     inkscape:pagecheckerboard="0"
     inkscape:deskcolor="#d1d1d1"
     inkscape:document-units="px"
     inkscape:zoom="2.1291572"
     inkscape:cx="1733.7846"
     inkscape:cy="820.74729"
     inkscape:window-width="2560"
     inkscape:window-height="1057"
     inkscape:window-x="1912"
     inkscape:window-y="-8"
     inkscape:window-maximized="1"
     inkscape:current-layer="layer25"
     showgrid="true"><inkscape:grid
       id="grid14"
       units="px"
       originx="-1399.8111"
       originy="-599.99996"
       spacingx="52.916666"
       spacingy="52.916666"
       empcolor="#0099e5"
       empopacity="0.30196078"
       color="#0099e5"
       opacity="0.14901961"
       empspacing="5"
       dotted="false"
       gridanglex="30"
       gridanglez="30"
       visible="true" /></sodipodi:namedview><defs
     id="defs1" /><g
     inkscape:groupmode="layer"
     id="layer24"
     inkscape:label="het_cam_vuot"
     transform="translate(-370.36669,-158.74999)"><g
       inkscape:label="Layer 1"
       id="layer1-2"
       transform="matrix(0.07559522,0,0,0.07559522,370.29109,189.29047)"><circle
         style="opacity:1;fill:#ffffff;fill-opacity:1;fill-rule:nonzero;stroke:none;stroke-width:5.65454;stroke-linecap:round;stroke-linejoin:miter;stroke-miterlimit:4;stroke-dasharray:none;stroke-opacity:1;paint-order:stroke fill markers"
         id="path836-57"
         cx="351"
         cy="-53.999989"
         r="340" /><path
         style="opacity:1;fill:#000000;fill-opacity:1;fill-rule:nonzero;stroke:none;stroke-width:7.6;stroke-linecap:butt;stroke-linejoin:miter;stroke-miterlimit:8;stroke-dasharray:none;stroke-opacity:1;paint-order:normal"
         d="m 211.00022,-134.00018 c -16.90766,0.0436 -50.82432,5.95027 -67.8,18.59992 -9.10851,26.061142 -12.50279,37.146231 -30.20022,56.800141 l 8.79998,35.5999 c 0.78011,5.85552 1.1692,8.50789 6.20014,11.50006 l 1.04851,16.6770299 c 0.39876,6.1490801 5.76845,10.8365101 11.55123,10.8231001 2.6007,-0.0436 9.38249,-2.77453 9.59994,-11.5998101 V -13.200319 h 60.80042 60.7999 V 4.4001609 c 0.21745,8.8252801 6.99923,11.5562101 9.59993,11.5998101 5.78279,0.0134 11.15247,-4.67402 11.55124,-10.8231001 l 1.04851,-16.6770299 c 5.03093,-2.99217 5.42003,-5.64454 6.20014,-11.50006 l 8.79998,-35.5999 c -17.69743,-19.65391 -21.0912,-30.738999 -30.19971,-56.800141 -16.97568,-12.64965 -50.89233,-18.55629 -67.79999,-18.59992 z m 0,9.79993 c 26.20447,0.50488 34.79378,3.31697 60.7999,15.0001 6.00598,24.850832 16.9538,41.514771 27.39988,53.199881 l -8.00003,33.00005 c -1.50198,3.59632 -4.37932,5.87888 -6.20014,7.00008 l -1.5999,20.4002999 c -0.19676,1.10291 -0.46435,2.7726204 -1.5999,2.5998504 -0.88678,0.0668 -1.26566,-1.4574104 -1.19993,-2.5998504 V -23.000219 h -69.59988 -69.6004 V 4.4001609 c 0.0657,1.14244 -0.31315,2.6666604 -1.19993,2.5998504 -1.13556,0.17277 -1.40314,-1.4969404 -1.5999,-2.5998504 l -1.59991,-20.4002999 c -1.82081,-1.1212 -4.69816,-3.40376 -6.20013,-7.00008 l -8.00003,-33.00005 c 10.44608,-11.68511 21.39389,-28.349049 27.39988,-53.199881 26.00612,-11.68313 34.59595,-14.49522 60.80042,-15.0001 z"
         id="rect25930"
         inkscape:connector-curvature="0" /><path
         inkscape:connector-curvature="0"
         id="path26836"
         d="m 491.00022,-134.00018 c -16.90766,0.0436 -50.82432,5.95027 -67.8,18.59992 -9.10851,26.061142 -12.50279,37.146231 -30.20022,56.800141 l 8.79998,35.5999 c 0.78011,5.85552 1.1692,8.50789 6.20014,11.50006 l 1.04851,16.6770299 c 0.39876,6.1490801 5.76845,10.8365101 11.55123,10.8231001 2.6007,-0.0436 9.38249,-2.77453 9.59994,-11.5998101 V -13.200319 h 60.80042 60.7999 V 4.4001609 c 0.21745,8.8252801 6.99923,11.5562101 9.59993,11.5998101 5.78279,0.0134 11.15247,-4.67402 11.55124,-10.8231001 l 1.04851,-16.6770299 c 5.03093,-2.99217 5.42003,-5.64454 6.20014,-11.50006 l 8.79998,-35.5999 c -17.69743,-19.65391 -21.0912,-30.738999 -30.19971,-56.800141 -16.97568,-12.64965 -50.89233,-18.55629 -67.79999,-18.59992 z m 0,9.79993 c 26.20447,0.50488 34.79378,3.31697 60.7999,15.0001 6.00598,24.850832 16.9538,41.514771 27.39988,53.199881 l -8.00003,33.00005 c -1.50198,3.59632 -4.37932,5.87888 -6.20014,7.00008 l -1.5999,20.4002999 c -0.19676,1.10291 -0.46435,2.7726204 -1.5999,2.5998504 -0.88678,0.0668 -1.26566,-1.4574104 -1.19993,-2.5998504 V -23.000219 h -69.59988 -69.6004 V 4.4001609 c 0.0657,1.14244 -0.31315,2.6666604 -1.19993,2.5998504 -1.13556,0.17277 -1.40314,-1.4969404 -1.5999,-2.5998504 l -1.59991,-20.4002999 c -1.82081,-1.1212 -4.69816,-3.40376 -6.20013,-7.00008 l -8.00003,-33.00005 c 10.44608,-11.68511 21.39389,-28.349049 27.39988,-53.199881 26.00612,-11.68313 34.59595,-14.49522 60.80042,-15.0001 z"
         style="opacity:1;fill:#000000;fill-opacity:1;fill-rule:nonzero;stroke:none;stroke-width:7.6;stroke-linecap:butt;stroke-linejoin:miter;stroke-miterlimit:8;stroke-dasharray:none;stroke-opacity:1;paint-order:normal" /><rect
         transform="rotate(45)"
         style="opacity:1;fill:#000000;fill-opacity:1;fill-rule:nonzero;stroke:none;stroke-width:2.04701;stroke-linecap:round;stroke-linejoin:miter;stroke-miterlimit:4;stroke-dasharray:none;stroke-opacity:1;paint-order:stroke fill markers"
         id="rect26838"
         width="9.8000002"
         height="660"
         x="165.0106"
         y="-616.3783" /><rect
         transform="rotate(45)"
         y="-616.3783"
         x="185.06065"
         height="660"
         width="9.8000002"
         id="rect26840"
         style="opacity:1;fill:#000000;fill-opacity:1;fill-rule:nonzero;stroke:none;stroke-width:2.04701;stroke-linecap:round;stroke-linejoin:miter;stroke-miterlimit:4;stroke-dasharray:none;stroke-opacity:1;paint-order:stroke fill markers" /><rect
         transform="rotate(45)"
         y="-616.3783"
         x="205.11058"
         height="660"
         width="9.8000002"
         id="rect26842"
         style="opacity:1;fill:#000000;fill-opacity:1;fill-rule:nonzero;stroke:none;stroke-width:2.04701;stroke-linecap:round;stroke-linejoin:miter;stroke-miterlimit:4;stroke-dasharray:none;stroke-opacity:1;paint-order:stroke fill markers" /><rect
         transform="rotate(45)"
         style="opacity:1;fill:#000000;fill-opacity:1;fill-rule:nonzero;stroke:none;stroke-width:2.04701;stroke-linecap:round;stroke-linejoin:miter;stroke-miterlimit:4;stroke-dasharray:none;stroke-opacity:1;paint-order:stroke fill markers"
         id="rect26844"
         width="9.8000002"
         height="660"
         x="225.16063"
         y="-616.3783" /><rect
         transform="rotate(45)"
         y="-616.3783"
         x="245.21068"
         height="660"
         width="9.8000002"
         id="rect26846"
         style="opacity:1;fill:#000000;fill-opacity:1;fill-rule:nonzero;stroke:none;stroke-width:2.04701;stroke-linecap:round;stroke-linejoin:miter;stroke-miterlimit:4;stroke-dasharray:none;stroke-opacity:1;paint-order:stroke fill markers" /><path
         id="path26848"
         d="M 350.99979,-404.00019 A 349.99998,349.99998 0 0 0 1,-53.99986 349.99998,349.99998 0 0 0 350.99979,296 349.99998,349.99998 0 0 0 701.0002,-53.99986 349.99998,349.99998 0 0 0 350.99979,-404.00019 Z m 0,49.70032 A 300.29999,300.29999 0 0 1 651.2998,-53.99986 300.29999,300.29999 0 0 1 350.99979,246.3002 a 300.29999,300.29999 0 0 1 -300.3,-300.30006 300.29999,300.29999 0 0 1 300.3,-300.30001 z"
         style="opacity:1;fill:#0046aa;fill-opacity:1;fill-rule:nonzero;stroke:none;stroke-width:315.815;stroke-linecap:round;stroke-linejoin:round;stroke-miterlimit:4;stroke-dasharray:none;stroke-opacity:1;paint-order:stroke fill markers"
         inkscape:connector-curvature="0" /></g></g></svg>
