<?xml version="1.0" encoding="UTF-8" standalone="no"?>
<!-- Created with Inkscape (http://www.inkscape.org/) -->

<svg
   width="239.99997"
   height="200"
   viewBox="0 0 63.49999 52.916666"
   version="1.1"
   id="svg1"
   xml:space="preserve"
   xmlns="http://www.w3.org/2000/svg"
   xmlns:svg="http://www.w3.org/2000/svg"><defs
     id="defs1" /><g
     id="layer11"
     transform="translate(-105.83333,-52.916664)"><path
       fill="#0046aa"
       d="m 105.83333,52.916664 h 63.49999 v 52.916666 h -63.49999 z"
       id="path1-3"
       style="stroke-width:0.0529164" /><path
       fill="none"
       stroke="#ffffff"
       stroke-width="0.529164"
       d="m 106.36249,53.44583 h 62.44166 v 51.85833 h -62.44166 z"
       id="path2-5" /><path
       d="m 108.47916,92.604158 v -8.678331 l 5.18584,-5.503334 5.18583,5.503334 v 3.915833 h 1.53458 v -9.789583 l 1.05833,-1.640417 v -9.524998 l 2.91042,-6.032499 2.91042,6.032499 v 9.524998 l 1.05832,1.640417 v 3.915833 l 3.43959,-1.852083 6.50876,4.074582 v 5.926665 h 1.69333 V 75.45916 h 0.84666 v -6.032498 h 0.58208 v -5.926667 h 5.92667 v 7.831665 h 0.89959 v 10.212917 h 2.32832 v 6.032497 h 0.95251 V 77.68166 l 4.07458,-3.598332 4.49792,4.021665 v 4.92125 l 3.65124,-3.01625 3.17501,3.4925 v 9.101665 z"
       fill="#ffffff"
       id="path3-7"
       style="stroke-width:0.0529164" /></g></svg>
