<?xml version="1.0" encoding="UTF-8" standalone="no"?>
<!-- Created with Inkscape (http://www.inkscape.org/) -->

<svg
   width="200"
   height="200"
   viewBox="0 0 52.916665 52.916666"
   version="1.1"
   id="svg1"
   xml:space="preserve"
   xmlns="http://www.w3.org/2000/svg"
   xmlns:svg="http://www.w3.org/2000/svg"><defs
     id="defs1" /><g
     id="layer9"
     transform="translate(-423.38951)"><circle
       style="fill:#4d4d4d;fill-opacity:1;stroke-width:4.79999;stroke-linecap:round;stroke-linejoin:round;paint-order:stroke fill markers"
       id="circle14-9"
       cx="449.84784"
       cy="26.458332"
       r="26.458332" /><circle
       style="fill:#ffffff;fill-opacity:1;stroke-width:4.35364;stroke-linecap:round;stroke-linejoin:round;paint-order:stroke fill markers"
       id="circle16-3"
       cx="449.84784"
       cy="26.458332"
       r="23.99798" /><path
       style="font-size:17.6389px;line-height:0;font-family:Overpass;-inkscape-font-specification:'Overpass, @wght=900';font-variation-settings:'wght' 900;letter-spacing:-1.32292px;word-spacing:7.9375px;stroke-width:4.8;stroke-linecap:round;stroke-linejoin:round;paint-order:stroke fill markers"
       d="m 427.93589,34.492851 v -12.34723 h 2.78695 v 5.820837 l 4.60375,-5.820837 h 3.35139 l -3.70416,4.497919 4.33917,7.849311 h -3.2632 l -2.96334,-5.503337 -2.36361,2.963336 v 2.540001 z m 11.73872,0 v -12.34723 h 2.78694 v 4.674308 h 4.81542 v -4.674308 h 2.78695 v 12.34723 h -2.78695 v -5.009448 h -4.81542 v 5.009448 z m 10.58334,0 4.92125,-12.34723 h 2.66348 l 4.93889,12.34723 h -3.05153 l -0.91722,-2.345974 h -4.60376 l -0.89958,2.345974 z m 4.88598,-4.921253 h 2.71639 l -1.00542,-2.469446 q -0.0529,-0.123472 -0.12347,-0.273403 -0.0617,-0.15875 -0.12348,-0.3175 -0.0617,-0.16757 -0.10583,-0.308681 -0.0441,0.141111 -0.10583,0.308681 -0.0617,0.15875 -0.13229,0.3175 -0.0617,0.149931 -0.11466,0.273403 z m -0.79376,-8.572506 2.50473,-2.751668 h 3.12208 l -3.13972,2.751668 z m 12.8235,13.670148 q -1.46402,0 -2.46944,-0.555625 -0.9966,-0.555625 -1.60514,-1.472848 -0.60854,-0.926043 -0.88195,-2.046113 -0.26458,-1.128889 -0.26458,-2.275418 0,-1.049515 0.2734,-2.169585 0.27341,-1.12007 0.88195,-2.072571 0.61736,-0.96132 1.61396,-1.552223 1.00541,-0.590903 2.4518,-0.590903 1.19063,0 2.09903,0.440972 0.91723,0.432154 1.53459,1.12889 0.62618,0.696737 0.93486,1.464029 l -2.48709,1.111251 q -0.30868,-0.467431 -0.60854,-0.793751 -0.29986,-0.32632 -0.65264,-0.493889 -0.35278,-0.176389 -0.82021,-0.176389 -0.66145,0 -1.11125,0.343958 -0.44979,0.33514 -0.71437,0.890765 -0.26459,0.555625 -0.38806,1.208265 -0.11465,0.643819 -0.11465,1.261181 0,0.635 0.13229,1.28764 0.13229,0.64382 0.41452,1.181806 0.28222,0.537987 0.72319,0.873126 0.44097,0.326319 1.05833,0.326319 0.635,0 1.12889,-0.440972 0.49389,-0.449792 0.91723,-1.146529 l 2.54,0.952501 q -0.44979,0.970139 -1.08479,1.719793 -0.635,0.749653 -1.49931,1.172987 -0.86431,0.423333 -2.00202,0.423333 z"
       id="text16-2"
       aria-label="KHÁC" /><text
       xml:space="preserve"
       style="font-style:normal;font-variant:normal;font-weight:normal;font-stretch:normal;font-size:17.6389px;line-height:0;font-family:Overpass;-inkscape-font-specification:'Overpass, @wght=900';font-variant-ligatures:normal;font-variant-caps:normal;font-variant-numeric:normal;font-variant-east-asian:normal;font-variation-settings:'wght' 900;letter-spacing:-1.32292px;word-spacing:7.9375px;display:none;fill:#000000;fill-opacity:1;stroke-width:4.79999;stroke-linecap:round;stroke-linejoin:round;paint-order:stroke fill markers"
       x="426.64825"
       y="34.492851"
       id="text9"><tspan
         id="tspan9"
         style="font-style:normal;font-variant:normal;font-weight:normal;font-stretch:normal;font-size:17.6389px;font-family:Overpass;-inkscape-font-specification:'Overpass, @wght=900';font-variant-ligatures:normal;font-variant-caps:normal;font-variant-numeric:normal;font-variant-east-asian:normal;font-variation-settings:'wght' 900;fill:#000000;fill-opacity:1;stroke-width:4.8"
         x="0"
         y="0">KHÁC</tspan></text></g></svg>
