<?xml version="1.0" encoding="UTF-8" standalone="no"?>
<!-- Created with Inkscape (http://www.inkscape.org/) -->

<svg
   width="200"
   height="200"
   viewBox="0 0 52.916665 52.916666"
   version="1.1"
   id="svg1"
   xml:space="preserve"
   inkscape:version="1.3 (0e150ed6c4, 2023-07-21)"
   sodipodi:docname="speed_limit.svg"
   xmlns:inkscape="http://www.inkscape.org/namespaces/inkscape"
   xmlns:sodipodi="http://sodipodi.sourceforge.net/DTD/sodipodi-0.dtd"
   xmlns="http://www.w3.org/2000/svg"
   xmlns:svg="http://www.w3.org/2000/svg"><sodipodi:namedview
     id="namedview1"
     pagecolor="#ffffff"
     bordercolor="#000000"
     borderopacity="0.25"
     inkscape:showpageshadow="2"
     inkscape:pageopacity="0.0"
     inkscape:pagecheckerboard="0"
     inkscape:deskcolor="#d1d1d1"
     inkscape:document-units="px"
     inkscape:zoom="0.5322893"
     inkscape:cx="1503.8814"
     inkscape:cy="177.53504"
     inkscape:window-width="2560"
     inkscape:window-height="1057"
     inkscape:window-x="1912"
     inkscape:window-y="-8"
     inkscape:window-maximized="1"
     inkscape:current-layer="layer12"
     showgrid="true"><inkscape:grid
       id="grid14"
       units="px"
       originx="-1800.0001"
       originy="-199.99998"
       spacingx="52.916666"
       spacingy="52.916666"
       empcolor="#0099e5"
       empopacity="0.30196078"
       color="#0099e5"
       opacity="0.14901961"
       empspacing="5"
       dotted="false"
       gridanglex="30"
       gridanglez="30"
       visible="true" /></sodipodi:namedview><defs
     id="defs1"><inkscape:path-effect
       effect="fillet_chamfer"
       id="path-effect1"
       is_visible="true"
       lpeversion="1"
       nodesatellites_param="F,0,0,1,0,2,0,1 @ F,0,0,1,0,2,0,1 @ F,0,0,1,0,2,0,1 @ F,0,0,1,0,2,0,1"
       radius="2"
       unit="px"
       method="auto"
       mode="F"
       chamfer_steps="1"
       flexible="false"
       use_knot_distance="true"
       apply_no_radius="true"
       apply_with_radius="true"
       only_selected="false"
       hide_knots="false" /></defs><g
     inkscape:groupmode="layer"
     id="layer13"
     inkscape:label="red_light_cam"
     transform="translate(-476.25001,-52.91666)"><circle
       style="fill:#e4dfe1;fill-opacity:1;stroke-width:4.79999;stroke-linecap:round;stroke-linejoin:round;paint-order:stroke fill markers"
       id="use84"
       cx="502.70834"
       cy="79.374992"
       r="26.458332" /><circle
       style="fill:#c20b10;fill-opacity:1;stroke-width:4.48117;stroke-linecap:round;stroke-linejoin:round;paint-order:stroke fill markers"
       id="use85"
       cx="502.70834"
       cy="79.374992"
       r="24.700937" /><circle
       style="fill:#ffffff;fill-opacity:1;stroke-width:3.174;stroke-linecap:round;stroke-linejoin:round;paint-order:stroke fill markers"
       id="use86"
       cx="502.70834"
       cy="79.374992"
       r="17.495613" /><text
       xml:space="preserve"
       style="font-style:normal;font-variant:normal;font-weight:normal;font-stretch:normal;font-size:21.1667px;line-height:0;font-family:Overpass;-inkscape-font-specification:'Overpass, @wght=900';font-variant-ligatures:normal;font-variant-caps:normal;font-variant-numeric:normal;font-variant-east-asian:normal;font-variation-settings:'wght' 900;letter-spacing:-1.32292px;word-spacing:7.9375px;display:none;fill:#000000;fill-opacity:1;stroke-width:4.79999;stroke-linecap:round;stroke-linejoin:round;paint-order:stroke fill markers"
       x="486.48407"
       y="86.78334"
       id="use88"><tspan
         sodipodi:role="line"
         id="tspan1"
         style="font-style:normal;font-variant:normal;font-weight:normal;font-stretch:normal;font-size:21.1667px;font-family:Overpass;-inkscape-font-specification:'Overpass, @wght=900';font-variant-ligatures:normal;font-variant-caps:normal;font-variant-numeric:normal;font-variant-east-asian:normal;font-variation-settings:'wght' 900;fill:#000000;fill-opacity:1;stroke-width:4.8"
         x="486.48407"
         y="86.78334">120</tspan></text><g
       id="g11"
       transform="matrix(0.8557252,0,0,0.8557252,-19.722682,59.891051)"><path
         style="font-variation-settings:'wght' 900;fill:#5e6261;fill-opacity:1;stroke:#000000;stroke-width:2.16141;stroke-linecap:butt;stroke-linejoin:round;stroke-miterlimit:4;stroke-dasharray:none;stroke-opacity:1;paint-order:stroke fill markers"
         id="rect88"
         width="13.13378"
         height="20.072578"
         x="595.16272"
         y="10.043424"
         inkscape:path-effect="#path-effect1"
         sodipodi:type="rect"
         d="m 597.16272,10.043424 h 9.13378 a 2,2 45 0 1 2,2 v 16.072578 a 2,2 135 0 1 -2,2 h -9.13378 a 2,2 45 0 1 -2,-2 V 12.043424 a 2,2 135 0 1 2,-2 z"
         transform="matrix(1.0615079,0,0,0.99690941,-36.886836,0.68339166)" /><ellipse
         style="font-variation-settings:'wght' 900;fill:#d86057;fill-opacity:1;stroke:#000000;stroke-width:1.5875;stroke-linecap:round;stroke-linejoin:round;stroke-dasharray:none;stroke-opacity:1;paint-order:stroke fill markers"
         id="path6"
         cx="601.85388"
         cy="15.934388"
         rx="3.5864317"
         ry="3.7115183" /><ellipse
         style="font-variation-settings:'wght' 900;fill:#a0e885;fill-opacity:1;stroke:#000000;stroke-width:1.5875;stroke-linecap:round;stroke-linejoin:round;stroke-dasharray:none;stroke-opacity:1;paint-order:stroke fill markers"
         id="ellipse6"
         cx="601.85388"
         cy="25.935913"
         rx="3.5864317"
         ry="3.7115183" /><path
         d="m 601.85613,12.091221 a 3.5864317,3.7115183 0 0 0 -0.56069,0.04548 3.5864317,3.7115183 0 0 0 -0.54725,0.135909 3.5864317,3.7115183 0 0 0 -0.51987,0.223242 3.5864317,3.7115183 0 0 0 -0.48007,0.303857 3.5864317,3.7115183 0 0 0 -0.42788,0.378272 3.5864317,3.7115183 0 0 0 -0.36536,0.442867 3.5864317,3.7115183 0 0 0 -0.29403,0.49661 3.5864317,3.7115183 0 0 0 -0.21549,0.537952 3.5864317,3.7115183 0 0 0 -0.002,0.0078 4.5832653,4.7431192 0 0 1 0.41083,-0.425814 4.5832653,4.7431192 0 0 1 0.52348,-0.40566 4.5832653,4.7431192 0 0 1 0.57413,-0.324011 4.5832653,4.7431192 0 0 1 0.61288,-0.236678 4.5832653,4.7431192 0 0 1 0.63872,-0.14366 4.5832653,4.7431192 0 0 1 0.65216,-0.04858 4.5832653,4.7431192 0 0 1 0.23254,0.0062 4.5832653,4.7431192 0 0 1 0.23151,0.01809 4.5832653,4.7431192 0 0 1 0.22996,0.03049 4.5832653,4.7431192 0 0 1 0.22893,0.04237 4.5832653,4.7431192 0 0 1 0.22583,0.05426 4.5832653,4.7431192 0 0 1 0.22324,0.06615 4.5832653,4.7431192 0 0 1 0.22014,0.07751 4.5832653,4.7431192 0 0 1 0.21549,0.0894 4.5832653,4.7431192 0 0 1 0.21084,0.100252 4.5832653,4.7431192 0 0 1 0.20619,0.111104 4.5832653,4.7431192 0 0 1 0.19999,0.121956 4.5832653,4.7431192 0 0 1 0.19378,0.132292 4.5832653,4.7431192 0 0 1 0.18707,0.14211 4.5832653,4.7431192 0 0 1 0.17984,0.151929 4.5832653,4.7431192 0 0 1 0.1726,0.161231 4.5832653,4.7431192 0 0 1 0.16433,0.170015 4.5832653,4.7431192 0 0 1 0.0863,0.09922 3.5864317,3.7115183 0 0 0 -0.0233,-0.07648 3.5864317,3.7115183 0 0 0 -0.0718,-0.194821 3.5864317,3.7115183 0 0 0 -0.0822,-0.189652 3.5864317,3.7115183 0 0 0 -0.092,-0.185002 3.5864317,3.7115183 0 0 0 -0.10232,-0.179317 3.5864317,3.7115183 0 0 0 -0.11162,-0.173116 3.5864317,3.7115183 0 0 0 -0.12144,-0.166398 3.5864317,3.7115183 0 0 0 -0.12971,-0.159163 3.5864317,3.7115183 0 0 0 -0.13797,-0.151412 3.5864317,3.7115183 0 0 0 -0.14625,-0.142627 3.5864317,3.7115183 0 0 0 -0.15399,-0.134359 3.5864317,3.7115183 0 0 0 -0.16071,-0.125574 3.5864317,3.7115183 0 0 0 -0.16692,-0.115238 3.5864317,3.7115183 0 0 0 -0.17363,-0.105937 3.5864317,3.7115183 0 0 0 -0.17829,-0.0956 3.5864317,3.7115183 0 0 0 -0.18396,-0.08527 3.5864317,3.7115183 0 0 0 -0.18759,-0.0739 3.5864317,3.7115183 0 0 0 -0.19172,-0.06356 3.5864317,3.7115183 0 0 0 -0.19482,-0.05168 3.5864317,3.7115183 0 0 0 -0.1974,-0.04082 3.5864317,3.7115183 0 0 0 -0.19947,-0.02894 3.5864317,3.7115183 0 0 0 -0.19999,-0.01757 3.5864317,3.7115183 0 0 0 -0.20154,-0.0057 z"
         style="font-variation-settings:'wght' 900;opacity:0.7;fill:#000000;fill-opacity:1;stroke:none;stroke-width:1.5875;stroke-linecap:round;stroke-linejoin:round;paint-order:stroke fill markers"
         id="path8" /><path
         d="m 601.85613,11.879778 a 4.4274077,6.688686 0 0 0 -0.69215,0.08195 4.4274077,6.688686 0 0 0 -0.67558,0.244929 4.4274077,6.688686 0 0 0 -0.64177,0.402312 4.4274077,6.688686 0 0 0 -0.59263,0.547594 4.4274077,6.688686 0 0 0 -0.52821,0.681702 4.4274077,6.688686 0 0 0 -0.45105,0.79811 4.4274077,6.688686 0 0 0 -0.36296,0.894961 4.4274077,6.688686 0 0 0 -0.26602,0.969465 4.4274077,6.688686 0 0 0 -0.002,0.01425 5.657987,8.5477782 0 0 1 0.50717,-0.767377 5.657987,8.5477782 0 0 1 0.64623,-0.731057 5.657987,8.5477782 0 0 1 0.70875,-0.583915 5.657987,8.5477782 0 0 1 0.7566,-0.426527 5.657987,8.5477782 0 0 1 0.78849,-0.258896 5.657987,8.5477782 0 0 1 0.80507,-0.08756 5.657987,8.5477782 0 0 1 0.28708,0.01112 5.657987,8.5477782 0 0 1 0.28579,0.0326 5.657987,8.5477782 0 0 1 0.28388,0.05496 5.657987,8.5477782 0 0 1 0.28263,0.07635 5.657987,8.5477782 0 0 1 0.27877,0.09778 5.657987,8.5477782 0 0 1 0.27558,0.119209 5.657987,8.5477782 0 0 1 0.27177,0.139686 5.657987,8.5477782 0 0 1 0.26602,0.161115 5.657987,8.5477782 0 0 1 0.26028,0.180668 5.657987,8.5477782 0 0 1 0.25455,0.200226 5.657987,8.5477782 0 0 1 0.24687,0.21978 5.657987,8.5477782 0 0 1 0.23921,0.238409 5.657987,8.5477782 0 0 1 0.23095,0.256102 5.657987,8.5477782 0 0 1 0.22201,0.273798 5.657987,8.5477782 0 0 1 0.21308,0.290562 5.657987,8.5477782 0 0 1 0.20286,0.306391 5.657987,8.5477782 0 0 1 0.1066,0.178809 4.4274077,6.688686 0 0 0 -0.0288,-0.137833 4.4274077,6.688686 0 0 0 -0.0887,-0.351095 4.4274077,6.688686 0 0 0 -0.1016,-0.34178 4.4274077,6.688686 0 0 0 -0.11361,-0.333401 4.4274077,6.688686 0 0 0 -0.12631,-0.323153 4.4274077,6.688686 0 0 0 -0.13779,-0.311982 4.4274077,6.688686 0 0 0 -0.14992,-0.299872 4.4274077,6.688686 0 0 0 -0.16011,-0.286833 4.4274077,6.688686 0 0 0 -0.17033,-0.272868 4.4274077,6.688686 0 0 0 -0.18055,-0.257034 4.4274077,6.688686 0 0 0 -0.1901,-0.242133 4.4274077,6.688686 0 0 0 -0.19839,-0.226304 4.4274077,6.688686 0 0 0 -0.20606,-0.207674 4.4274077,6.688686 0 0 0 -0.21435,-0.190916 4.4274077,6.688686 0 0 0 -0.22009,-0.172283 4.4274077,6.688686 0 0 0 -0.22709,-0.153663 4.4274077,6.688686 0 0 0 -0.23157,-0.133174 4.4274077,6.688686 0 0 0 -0.23669,-0.114536 4.4274077,6.688686 0 0 0 -0.2405,-0.09313 4.4274077,6.688686 0 0 0 -0.24369,-0.07357 4.4274077,6.688686 0 0 0 -0.24624,-0.05217 4.4274077,6.688686 0 0 0 -0.24689,-0.03168 4.4274077,6.688686 0 0 0 -0.2488,-0.0104 z"
         style="font-variation-settings:'wght' 900;opacity:0.7;fill:#000000;fill-opacity:1;stroke:none;stroke-width:2.36782;stroke-linecap:round;stroke-linejoin:round;paint-order:stroke fill markers"
         id="path9" /><path
         d="m 601.85613,21.90829 a 3.5864317,3.7115183 0 0 0 -0.56069,0.04548 3.5864317,3.7115183 0 0 0 -0.54725,0.135909 3.5864317,3.7115183 0 0 0 -0.51987,0.223242 3.5864317,3.7115183 0 0 0 -0.48007,0.303857 3.5864317,3.7115183 0 0 0 -0.42788,0.378272 3.5864317,3.7115183 0 0 0 -0.36536,0.442867 3.5864317,3.7115183 0 0 0 -0.29403,0.49661 3.5864317,3.7115183 0 0 0 -0.21549,0.537952 3.5864317,3.7115183 0 0 0 -0.002,0.0078 4.5832653,4.7431192 0 0 1 0.41083,-0.425814 4.5832653,4.7431192 0 0 1 0.52348,-0.40566 4.5832653,4.7431192 0 0 1 0.57413,-0.324011 4.5832653,4.7431192 0 0 1 0.61288,-0.236678 4.5832653,4.7431192 0 0 1 0.63872,-0.14366 4.5832653,4.7431192 0 0 1 0.65216,-0.04858 4.5832653,4.7431192 0 0 1 0.23254,0.0062 4.5832653,4.7431192 0 0 1 0.23151,0.01809 4.5832653,4.7431192 0 0 1 0.22996,0.03049 4.5832653,4.7431192 0 0 1 0.22893,0.04237 4.5832653,4.7431192 0 0 1 0.22583,0.05426 4.5832653,4.7431192 0 0 1 0.22324,0.06615 4.5832653,4.7431192 0 0 1 0.22014,0.07751 4.5832653,4.7431192 0 0 1 0.21549,0.0894 4.5832653,4.7431192 0 0 1 0.21084,0.100252 4.5832653,4.7431192 0 0 1 0.20619,0.111104 4.5832653,4.7431192 0 0 1 0.19999,0.121956 4.5832653,4.7431192 0 0 1 0.19378,0.132292 4.5832653,4.7431192 0 0 1 0.18707,0.14211 4.5832653,4.7431192 0 0 1 0.17984,0.151929 4.5832653,4.7431192 0 0 1 0.1726,0.161231 4.5832653,4.7431192 0 0 1 0.16433,0.170015 4.5832653,4.7431192 0 0 1 0.0863,0.09922 3.5864317,3.7115183 0 0 0 -0.0233,-0.07648 3.5864317,3.7115183 0 0 0 -0.0718,-0.194821 3.5864317,3.7115183 0 0 0 -0.0822,-0.189652 3.5864317,3.7115183 0 0 0 -0.092,-0.185002 3.5864317,3.7115183 0 0 0 -0.10232,-0.179317 3.5864317,3.7115183 0 0 0 -0.11162,-0.173116 3.5864317,3.7115183 0 0 0 -0.12144,-0.166398 3.5864317,3.7115183 0 0 0 -0.12971,-0.159163 3.5864317,3.7115183 0 0 0 -0.13797,-0.151412 3.5864317,3.7115183 0 0 0 -0.14625,-0.142627 3.5864317,3.7115183 0 0 0 -0.15399,-0.134359 3.5864317,3.7115183 0 0 0 -0.16071,-0.125574 3.5864317,3.7115183 0 0 0 -0.16692,-0.115238 3.5864317,3.7115183 0 0 0 -0.17363,-0.105937 3.5864317,3.7115183 0 0 0 -0.17829,-0.0956 3.5864317,3.7115183 0 0 0 -0.18396,-0.08527 3.5864317,3.7115183 0 0 0 -0.18759,-0.0739 3.5864317,3.7115183 0 0 0 -0.19172,-0.06356 3.5864317,3.7115183 0 0 0 -0.19482,-0.05168 3.5864317,3.7115183 0 0 0 -0.1974,-0.04082 3.5864317,3.7115183 0 0 0 -0.19947,-0.02894 3.5864317,3.7115183 0 0 0 -0.19999,-0.01757 3.5864317,3.7115183 0 0 0 -0.20154,-0.0057 z"
         style="font-variation-settings:'wght' 900;opacity:0.7;fill:#000000;fill-opacity:1;stroke:none;stroke-width:1.5875;stroke-linecap:round;stroke-linejoin:round;paint-order:stroke fill markers"
         id="path10" /><path
         d="m 601.85613,21.696847 a 4.4274077,6.688686 0 0 0 -0.69215,0.08195 4.4274077,6.688686 0 0 0 -0.67558,0.244929 4.4274077,6.688686 0 0 0 -0.64177,0.402312 4.4274077,6.688686 0 0 0 -0.59263,0.547594 4.4274077,6.688686 0 0 0 -0.52821,0.681702 4.4274077,6.688686 0 0 0 -0.45105,0.79811 4.4274077,6.688686 0 0 0 -0.36296,0.894961 4.4274077,6.688686 0 0 0 -0.26602,0.969465 4.4274077,6.688686 0 0 0 -0.002,0.01425 5.657987,8.5477782 0 0 1 0.50717,-0.767377 5.657987,8.5477782 0 0 1 0.64623,-0.731057 5.657987,8.5477782 0 0 1 0.70875,-0.583915 5.657987,8.5477782 0 0 1 0.7566,-0.426527 5.657987,8.5477782 0 0 1 0.78849,-0.258896 5.657987,8.5477782 0 0 1 0.80507,-0.08756 5.657987,8.5477782 0 0 1 0.28708,0.01112 5.657987,8.5477782 0 0 1 0.28579,0.0326 5.657987,8.5477782 0 0 1 0.28388,0.05496 5.657987,8.5477782 0 0 1 0.28263,0.07635 5.657987,8.5477782 0 0 1 0.27877,0.09778 5.657987,8.5477782 0 0 1 0.27558,0.119209 5.657987,8.5477782 0 0 1 0.27177,0.139686 5.657987,8.5477782 0 0 1 0.26602,0.161115 5.657987,8.5477782 0 0 1 0.26028,0.180668 5.657987,8.5477782 0 0 1 0.25455,0.200226 5.657987,8.5477782 0 0 1 0.24687,0.21978 5.657987,8.5477782 0 0 1 0.23921,0.238409 5.657987,8.5477782 0 0 1 0.23095,0.256102 5.657987,8.5477782 0 0 1 0.22201,0.273798 5.657987,8.5477782 0 0 1 0.21308,0.290562 5.657987,8.5477782 0 0 1 0.20286,0.306391 5.657987,8.5477782 0 0 1 0.1066,0.178809 4.4274077,6.688686 0 0 0 -0.0288,-0.137833 4.4274077,6.688686 0 0 0 -0.0887,-0.351095 4.4274077,6.688686 0 0 0 -0.1016,-0.34178 4.4274077,6.688686 0 0 0 -0.11361,-0.333401 4.4274077,6.688686 0 0 0 -0.12631,-0.323153 4.4274077,6.688686 0 0 0 -0.13779,-0.311982 4.4274077,6.688686 0 0 0 -0.14992,-0.299872 4.4274077,6.688686 0 0 0 -0.16011,-0.286833 4.4274077,6.688686 0 0 0 -0.17033,-0.272868 4.4274077,6.688686 0 0 0 -0.18055,-0.257034 4.4274077,6.688686 0 0 0 -0.1901,-0.242133 4.4274077,6.688686 0 0 0 -0.19839,-0.226304 4.4274077,6.688686 0 0 0 -0.20606,-0.207674 4.4274077,6.688686 0 0 0 -0.21435,-0.190916 4.4274077,6.688686 0 0 0 -0.22009,-0.172283 4.4274077,6.688686 0 0 0 -0.22709,-0.153663 4.4274077,6.688686 0 0 0 -0.23157,-0.133174 4.4274077,6.688686 0 0 0 -0.23669,-0.114536 4.4274077,6.688686 0 0 0 -0.2405,-0.09313 4.4274077,6.688686 0 0 0 -0.24369,-0.07357 4.4274077,6.688686 0 0 0 -0.24624,-0.05217 4.4274077,6.688686 0 0 0 -0.24689,-0.03168 4.4274077,6.688686 0 0 0 -0.2488,-0.0104 z"
         style="font-variation-settings:'wght' 900;opacity:0.7;fill:#000000;fill-opacity:1;stroke:none;stroke-width:2.36782;stroke-linecap:round;stroke-linejoin:round;paint-order:stroke fill markers"
         id="path11" /></g><g
       id="g17"
       transform="matrix(0.32617983,0,0,0.28601387,299.84639,54.467616)"><path
         id="path12"
         d="m 617.5047,48.836811 h 38.47576 a 4,4 45 0 1 4,4 v 24.06081 a 4,4 135 0 1 -4,4 H 617.5047 a 4,4 45 0 1 -4,-4 v -24.06081 a 4,4 135 0 1 4,-4 z"
         style="font-variation-settings:'wght' 900;display:inline;fill:#8fa1ad;fill-opacity:1;stroke:#000000;stroke-width:6.35;stroke-linecap:butt;stroke-linejoin:round;stroke-miterlimit:10;stroke-dasharray:none;stroke-opacity:1;paint-order:stroke fill markers" /><path
         id="path13"
         d="m 621.58303,84.377083 h 30.31907 c 5.6e-4,0 10e-4,4.48e-4 10e-4,0.001 v 6.335601 c 0,5.53e-4 -4.4e-4,0.001 -10e-4,0.001 h -30.31907 c -5.5e-4,0 -10e-4,-4.47e-4 -10e-4,-0.001 v -6.335601 c 0,-5.52e-4 4.5e-4,-0.001 10e-4,-0.001 z"
         style="font-variation-settings:'wght' 900;display:inline;fill:#738b9e;fill-opacity:1;stroke:#000000;stroke-width:6.35;stroke-linecap:butt;stroke-linejoin:round;stroke-miterlimit:10;stroke-dasharray:none;stroke-opacity:1;paint-order:stroke fill markers" /><path
         id="path14"
         d="m 627.36739,94.391991 h 18.76253 a 0.001,0.001 45 0 1 10e-4,10e-4 v 5.977469 a 0.001,0.001 135 0 1 -10e-4,0.001 h -18.76253 a 0.001,0.001 45 0 1 -10e-4,-0.001 v -5.977469 a 0.001,0.001 135 0 1 10e-4,-10e-4 z"
         style="font-variation-settings:'wght' 900;display:inline;fill:#7996b5;fill-opacity:1;stroke:#000000;stroke-width:6.08542;stroke-linecap:butt;stroke-linejoin:round;stroke-miterlimit:10;stroke-dasharray:none;stroke-opacity:1;paint-order:stroke fill markers" /><path
         id="path15"
         d="m 638.52415,110.97564 h 27.88041 a 1e-4,1e-4 45 0 1 1e-4,1e-4 v 5.272 a 1e-4,1e-4 135 0 1 -1e-4,1e-4 h -27.88041 a 1e-4,1e-4 45 0 1 -10e-5,-1e-4 v -5.272 a 1e-4,1e-4 135 0 1 10e-5,-1e-4 z"
         style="font-variation-settings:'wght' 900;display:inline;fill:#7ea1ba;fill-opacity:1;stroke:#000000;stroke-width:6.08542;stroke-linecap:butt;stroke-linejoin:round;stroke-miterlimit:4;stroke-dasharray:none;stroke-opacity:1;paint-order:stroke fill markers" /><path
         id="path16"
         d="m 632.19877,103.6178 h 9.27546 a 1e-4,1e-4 45 0 1 10e-5,1e-4 v 12.57058 a 1e-4,1e-4 135 0 1 -10e-5,1e-4 h -9.27546 a 1e-4,1e-4 45 0 1 -10e-5,-1e-4 V 103.6179 a 1e-4,1e-4 135 0 1 10e-5,-1e-4 z"
         style="font-variation-settings:'wght' 900;display:inline;fill:#8ba2b6;fill-opacity:1;stroke:#000000;stroke-width:6.20394;stroke-linecap:butt;stroke-linejoin:round;stroke-miterlimit:4;stroke-dasharray:none;stroke-opacity:1;paint-order:stroke fill markers" /><circle
         style="font-variation-settings:'wght' 900;fill:#b6d5f4;fill-opacity:1;stroke:#000000;stroke-width:7.53681;stroke-linecap:butt;stroke-linejoin:round;stroke-miterlimit:4;stroke-dasharray:none;stroke-opacity:1;paint-order:stroke fill markers"
         id="circle17"
         cx="636.79266"
         cy="64.935791"
         r="7.1825871" /></g></g></svg>
