<?xml version="1.0" encoding="UTF-8" standalone="no"?>
<!-- Created with Inkscape (http://www.inkscape.org/) -->

<svg
   width="200"
   height="200"
   viewBox="0 0 52.916665 52.916666"
   version="1.1"
   id="svg1"
   xml:space="preserve"
   inkscape:version="1.3 (0e150ed6c4, 2023-07-21)"
   sodipodi:docname="speed_limit.svg"
   xmlns:inkscape="http://www.inkscape.org/namespaces/inkscape"
   xmlns:sodipodi="http://sodipodi.sourceforge.net/DTD/sodipodi-0.dtd"
   xmlns="http://www.w3.org/2000/svg"
   xmlns:svg="http://www.w3.org/2000/svg"><sodipodi:namedview
     id="namedview1"
     pagecolor="#ffffff"
     bordercolor="#000000"
     borderopacity="0.25"
     inkscape:showpageshadow="2"
     inkscape:pageopacity="0.0"
     inkscape:pagecheckerboard="0"
     inkscape:deskcolor="#d1d1d1"
     inkscape:document-units="px"
     inkscape:zoom="0.5322893"
     inkscape:cx="1503.8814"
     inkscape:cy="177.53504"
     inkscape:window-width="2560"
     inkscape:window-height="1057"
     inkscape:window-x="1912"
     inkscape:window-y="-8"
     inkscape:window-maximized="1"
     inkscape:current-layer="layer12"
     showgrid="true"><inkscape:grid
       id="grid14"
       units="px"
       originx="-1800.0001"
       originy="0"
       spacingx="52.916666"
       spacingy="52.916666"
       empcolor="#0099e5"
       empopacity="0.30196078"
       color="#0099e5"
       opacity="0.14901961"
       empspacing="5"
       dotted="false"
       gridanglex="30"
       gridanglez="30"
       visible="true" /></sodipodi:namedview><defs
     id="defs1" /><g
     inkscape:groupmode="layer"
     id="layer12"
     inkscape:label="speed_cam"
     transform="translate(-476.25001)"><circle
       style="fill:#e4dfe1;fill-opacity:1;stroke-width:4.79999;stroke-linecap:round;stroke-linejoin:round;paint-order:stroke fill markers"
       id="use1"
       cx="502.70834"
       cy="26.458332"
       r="26.458332" /><circle
       style="fill:#c20b10;fill-opacity:1;stroke-width:4.48117;stroke-linecap:round;stroke-linejoin:round;paint-order:stroke fill markers"
       id="use2"
       cx="502.70834"
       cy="26.458332"
       r="24.700937" /><circle
       style="fill:#ffffff;fill-opacity:1;stroke-width:3.174;stroke-linecap:round;stroke-linejoin:round;paint-order:stroke fill markers"
       id="use3"
       cx="502.70834"
       cy="26.458332"
       r="17.495613" /><text
       xml:space="preserve"
       style="font-style:normal;font-variant:normal;font-weight:normal;font-stretch:normal;font-size:21.1667px;line-height:0;font-family:Overpass;-inkscape-font-specification:'Overpass, @wght=900';font-variant-ligatures:normal;font-variant-caps:normal;font-variant-numeric:normal;font-variant-east-asian:normal;font-variation-settings:'wght' 900;letter-spacing:-1.32292px;word-spacing:7.9375px;display:none;fill:#000000;fill-opacity:1;stroke-width:4.79999;stroke-linecap:round;stroke-linejoin:round;paint-order:stroke fill markers"
       x="486.48407"
       y="33.866676"
       id="use5"><tspan
         sodipodi:role="line"
         id="tspan1"
         style="font-style:normal;font-variant:normal;font-weight:normal;font-stretch:normal;font-size:21.1667px;font-family:Overpass;-inkscape-font-specification:'Overpass, @wght=900';font-variant-ligatures:normal;font-variant-caps:normal;font-variant-numeric:normal;font-variant-east-asian:normal;font-variation-settings:'wght' 900;fill:#000000;fill-opacity:1;stroke-width:4.8"
         x="486.48407"
         y="33.866676">120</tspan></text><g
       id="g80"
       transform="matrix(0.38687099,0,0,0.33923148,255.13441,-1.0545382)"><path
         id="rect71"
         d="m 617.5047,48.836811 h 38.47576 a 4,4 45 0 1 4,4 v 24.06081 a 4,4 135 0 1 -4,4 H 617.5047 a 4,4 45 0 1 -4,-4 v -24.06081 a 4,4 135 0 1 4,-4 z"
         style="font-variation-settings:'wght' 900;display:inline;fill:#8fa1ad;fill-opacity:1;stroke:#000000;stroke-width:6.35;stroke-linecap:butt;stroke-linejoin:round;stroke-miterlimit:10;stroke-dasharray:none;stroke-opacity:1;paint-order:stroke fill markers" /><path
         id="rect72"
         d="m 621.58303,84.377083 h 30.31907 c 5.6e-4,0 10e-4,4.48e-4 10e-4,0.001 v 6.335601 c 0,5.53e-4 -4.4e-4,0.001 -10e-4,0.001 h -30.31907 c -5.5e-4,0 -10e-4,-4.47e-4 -10e-4,-0.001 v -6.335601 c 0,-5.52e-4 4.5e-4,-0.001 10e-4,-0.001 z"
         style="font-variation-settings:'wght' 900;display:inline;fill:#738b9e;fill-opacity:1;stroke:#000000;stroke-width:6.35;stroke-linecap:butt;stroke-linejoin:round;stroke-miterlimit:10;stroke-dasharray:none;stroke-opacity:1;paint-order:stroke fill markers" /><path
         id="rect73"
         d="m 627.36739,94.391991 h 18.76253 a 0.001,0.001 45 0 1 10e-4,10e-4 v 5.977469 a 0.001,0.001 135 0 1 -10e-4,0.001 h -18.76253 a 0.001,0.001 45 0 1 -10e-4,-0.001 v -5.977469 a 0.001,0.001 135 0 1 10e-4,-10e-4 z"
         style="font-variation-settings:'wght' 900;display:inline;fill:#7996b5;fill-opacity:1;stroke:#000000;stroke-width:6.08542;stroke-linecap:butt;stroke-linejoin:round;stroke-miterlimit:10;stroke-dasharray:none;stroke-opacity:1;paint-order:stroke fill markers" /><path
         id="rect75"
         d="m 638.52415,110.97564 h 27.88041 a 1e-4,1e-4 45 0 1 1e-4,1e-4 v 5.272 a 1e-4,1e-4 135 0 1 -1e-4,1e-4 h -27.88041 a 1e-4,1e-4 45 0 1 -10e-5,-1e-4 v -5.272 a 1e-4,1e-4 135 0 1 10e-5,-1e-4 z"
         style="font-variation-settings:'wght' 900;display:inline;fill:#7ea1ba;fill-opacity:1;stroke:#000000;stroke-width:6.08542;stroke-linecap:butt;stroke-linejoin:round;stroke-miterlimit:4;stroke-dasharray:none;stroke-opacity:1;paint-order:stroke fill markers" /><path
         id="rect74"
         d="m 632.19877,103.6178 h 9.27546 a 1e-4,1e-4 45 0 1 10e-5,1e-4 v 12.57058 a 1e-4,1e-4 135 0 1 -10e-5,1e-4 h -9.27546 a 1e-4,1e-4 45 0 1 -10e-5,-1e-4 V 103.6179 a 1e-4,1e-4 135 0 1 10e-5,-1e-4 z"
         style="font-variation-settings:'wght' 900;display:inline;fill:#8ba2b6;fill-opacity:1;stroke:#000000;stroke-width:6.20394;stroke-linecap:butt;stroke-linejoin:round;stroke-miterlimit:4;stroke-dasharray:none;stroke-opacity:1;paint-order:stroke fill markers" /><circle
         style="font-variation-settings:'wght' 900;fill:#b6d5f4;fill-opacity:1;stroke:#000000;stroke-width:7.53681;stroke-linecap:butt;stroke-linejoin:round;stroke-miterlimit:4;stroke-dasharray:none;stroke-opacity:1;paint-order:stroke fill markers"
         id="path80"
         cx="636.79266"
         cy="64.935791"
         r="7.1825871" /></g></g></svg>
